<svg width="150" height="150" viewBox="0 0 150 150" fill="none" xmlns="http://www.w3.org/2000/svg">
<path d="M37.8042 39.7315C73.0818 54.4905 89.6407 95.1678 75.2417 130.445C39.9641 115.686 23.0452 75.0091 37.8042 39.7315Z" fill="#EC0121"/>
<path d="M76.6758 134.045L74.1559 132.965C37.4384 117.846 20.1596 75.3691 35.2786 38.6516L36.3585 36.1318L38.8783 37.2117C75.5958 52.3307 92.8747 94.8078 77.7557 131.525L76.6758 134.045ZM39.2383 43.3313C27.3591 75.7291 42.4781 112.447 73.796 126.846C85.6752 94.4478 70.5562 57.7303 39.2383 43.3313Z" fill="#1D1D1B"/>
<path d="M75.2486 130.445C60.4896 95.1678 77.4084 54.4905 112.686 39.7315C127.085 75.0091 110.526 115.686 75.2486 130.445Z" fill="#EC0121"/>
<path d="M73.8028 134.045L72.7229 131.525C57.6039 94.8078 74.8828 52.3307 111.6 37.2117L114.12 36.1318L115.2 38.6516C130.319 75.3691 113.04 117.846 76.3227 132.965L73.8028 134.045ZM110.88 43.3313C79.5624 57.7303 64.4435 94.4478 76.3227 126.846C108.001 112.087 123.12 75.7291 110.88 43.3313Z" fill="#1D1D1B"/>
<path d="M96.1155 57.3703C95.0356 53.4106 93.5957 46.571 88.916 39.7315C86.0362 35.7718 78.8367 27.8523 75.2369 20.2928C71.6371 27.8523 64.4376 35.7718 61.5578 39.7315C56.8781 46.571 55.0783 53.4106 54.3583 57.3703C54.3583 57.3703 52.1985 65.6498 52.9184 75.3691C53.6384 99.1275 73.437 127.926 75.2369 130.445C82.4364 122.166 96.8354 102.727 97.9154 75.7291C97.9154 68.8895 97.1954 62.7699 96.1155 57.3703Z" fill="#EC0121"/>
<path d="M74.8768 134.765L72.7169 131.885C72.3569 131.525 50.7584 101.287 49.6785 75.7291C49.3185 65.6498 51.1184 57.3703 51.1184 57.0103C52.1983 51.9707 54.3581 45.4911 58.6779 38.6516C59.7578 37.2117 61.1977 35.4118 62.6376 33.2519C65.8774 29.2922 69.8371 24.2526 72.3569 19.2129L75.2367 14.1732L77.7566 19.2129C79.9164 23.8926 83.8761 28.9322 87.1159 32.892C88.9158 35.0518 90.3557 36.8517 91.4356 38.6516C96.4753 45.8511 98.2752 53.0506 98.9951 57.0103V57.3703C100.075 63.4899 100.795 69.6095 100.435 76.089C99.7151 101.287 87.4759 120.726 77.0366 132.605L74.8768 134.765ZM75.2367 25.6925C72.7169 29.6522 69.8371 33.252 67.3173 36.4917C65.8774 38.6516 64.4375 40.0915 63.3575 41.5314C58.6779 48.3709 57.238 55.2105 56.518 58.4502C56.518 58.4502 54.7181 66.3697 55.0781 75.7291C55.798 94.8078 69.8371 118.206 75.2367 126.126C84.2361 114.966 94.3154 97.6876 95.0354 75.7291C95.0354 69.9695 94.6754 63.8499 93.5955 58.4502C92.5156 54.4905 91.0757 48.3709 86.756 41.8914C86.036 40.4515 84.5961 38.6516 82.7962 36.4917C80.2764 33.252 77.3966 29.6522 75.2367 25.6925Z" fill="#1D1D1B"/>
<path d="M144.722 64.5698C99.0055 62.41 72.7273 112.087 75.6071 134.045C99.0055 132.605 126.004 121.086 134.283 97.6876C137.883 88.6882 137.163 72.8493 144.722 64.5698Z" fill="#EC0121"/>
<path d="M73.8028 135.125L72.7229 134.045C71.283 122.166 77.7626 100.927 93.2415 84.0085C103.321 73.2092 120.24 60.2501 144.358 61.69L149.758 62.05L146.158 66.3697C141.838 71.0494 140.758 78.9689 139.318 86.1684C138.598 90.8481 137.878 94.8078 136.439 98.4075C127.079 124.326 97.5612 135.125 75.2427 136.565L73.8028 135.125ZM139.678 67.0897C119.88 67.8096 106.201 78.6089 97.5612 87.9683C84.2421 102.367 77.7625 120.366 78.1225 131.165C98.6411 129.005 123.839 119.286 131.759 96.6077C132.839 93.3679 133.559 89.4082 134.639 85.4484C135.359 79.3288 136.799 72.4893 139.678 67.0897Z" fill="#1D1D1B"/>
<path d="M5.75879 64.5698C51.4757 62.41 77.7539 112.087 74.8741 134.045C51.4757 132.605 24.4775 121.086 16.1981 97.6876C12.5983 88.6882 12.9583 72.8493 5.75879 64.5698Z" fill="#EC0121"/>
<path d="M77.0348 136.565H74.515C52.1965 135.125 22.6785 124.326 13.3191 98.4075C11.8792 94.8078 11.1592 90.8481 10.4393 86.1684C8.99939 78.6089 7.55949 71.0494 3.59976 66.3697L0 62.05L5.39964 61.69C29.518 60.6101 46.7968 73.2092 56.5162 84.0085C71.9951 100.927 78.8347 122.166 77.0348 134.045V136.565ZM10.7993 67.0897C13.6791 72.4893 14.759 78.9689 15.8389 85.0884C16.5589 89.4081 17.2788 93.3679 18.3588 96.2477C26.6382 118.926 51.8365 128.645 71.9951 130.805C72.3551 120.006 65.8755 102.007 52.5564 87.6083C44.637 78.6089 30.5979 67.8096 10.7993 67.0897Z" fill="#1D1D1B"/>
<path d="M82.7973 134.045C82.7973 135.485 79.1976 136.565 75.2378 136.565C70.9181 136.565 67.3184 135.485 67.3184 134.045C67.3184 132.605 70.9181 131.525 74.8778 131.525C79.5575 131.165 82.7973 132.605 82.7973 134.045Z" fill="#1D1D1B"/>
</svg>
