<svg width="144" height="144" viewBox="0 0 144 144" fill="none" xmlns="http://www.w3.org/2000/svg">
<rect width="144" height="144" fill="white"/>
<path d="M41.404 42.4946C70.5145 54.6735 84.1785 88.2396 72.2967 117.35C43.1863 105.171 29.2251 71.6051 41.404 42.4946Z" fill="#FE344C"/>
<path d="M73.47 120.321L71.3907 119.43C41.0921 106.954 26.8339 71.9023 39.3098 41.6037L40.2009 39.5243L42.2803 40.4155C72.5789 52.8914 86.8371 87.9427 74.3612 118.241L73.47 120.321ZM42.5773 45.4653C32.7748 72.1993 45.2507 102.498 71.0937 114.38C80.8962 87.6457 68.4202 57.3471 42.5773 45.4653Z" fill="#1D1D1B"/>
<path d="M72.3132 117.35C60.1343 88.2398 74.0955 54.6737 103.206 42.4949C115.088 71.6053 101.424 105.171 72.3132 117.35Z" fill="#FE344C"/>
<path d="M71.1218 120.321L70.2307 118.241C57.7548 87.9427 72.013 52.8914 102.312 40.4155L104.391 39.5244L105.282 41.6037C117.758 71.9023 103.5 106.954 73.2011 119.43L71.1218 120.321ZM101.717 45.4653C75.8746 57.3471 63.3987 87.6457 73.2011 114.38C99.3411 102.201 111.817 72.1993 101.717 45.4653Z" fill="#1D1D1B"/>
<path d="M89.5274 57.0501C88.6363 53.7826 87.4481 48.1387 83.5865 42.4948C81.2102 39.2273 75.2693 32.6924 72.2988 26.4544C69.3283 32.6924 63.3874 39.2273 61.0111 42.4948C57.1495 48.1387 55.6643 53.7826 55.0702 57.0501C55.0702 57.0501 53.2879 63.8821 53.882 71.9023C54.4761 91.5073 70.8136 115.271 72.2988 117.35C78.2397 110.518 90.1215 94.4778 91.0127 72.1994C91.0127 66.5555 90.4186 61.5057 89.5274 57.0501Z" fill="#FE344C"/>
<path d="M72.0014 120.915L70.2191 118.538C69.9221 118.241 52.0994 93.2896 51.2082 72.1993C50.9112 63.8821 52.3964 57.05 52.3964 56.753C53.2875 52.5944 55.0698 47.2475 58.6344 41.6037C59.5255 40.4155 60.7137 38.9303 61.9019 37.148C64.5753 33.8805 67.8428 29.7219 69.9221 25.5632L72.2984 21.4046L74.3778 25.5632C76.16 29.4248 79.4275 33.5835 82.1009 36.851C83.5862 38.6332 84.7744 40.1185 85.6655 41.6037C89.8241 47.5446 91.3094 53.4855 91.9034 56.753V57.05C92.7946 62.0998 93.3887 67.1496 93.0916 72.4964C92.4975 93.2896 82.398 109.33 73.7837 119.132L72.0014 120.915ZM72.2984 30.9101C70.2191 34.1776 67.8428 37.148 65.7634 39.8214C64.5753 41.6037 63.3871 42.7919 62.496 43.98C58.6344 49.6239 57.4462 55.2678 56.8521 57.9412C56.8521 57.9412 55.3669 64.4762 55.6639 72.1993C56.258 87.9427 67.8428 107.251 72.2984 113.786C79.7246 104.577 88.0419 90.3191 88.6359 72.1993C88.6359 67.4466 88.3389 62.3969 87.4478 57.9412C86.5566 54.6737 85.3684 49.6239 81.8039 44.2771C81.2098 43.0889 80.0216 41.6037 78.5364 39.8214C76.4571 37.148 74.0807 34.1776 72.2984 30.9101Z" fill="#1D1D1B"/>
<path d="M129.626 62.991C91.901 61.2087 70.2167 102.201 72.593 120.321C91.901 119.133 114.179 109.627 121.011 90.3191C123.982 82.893 123.388 69.823 129.626 62.991Z" fill="#FE344C"/>
<path d="M71.0984 121.212L70.2073 120.321C69.0191 110.518 74.3659 92.9925 87.1388 79.0314C95.4561 70.1201 109.417 59.4264 129.319 60.6146L133.775 60.9116L130.805 64.4762C127.24 68.3378 126.349 74.8728 125.161 80.8137C124.567 84.6753 123.972 87.9428 122.784 90.9132C115.061 112.3 90.7034 121.212 72.2866 122.4L71.0984 121.212ZM125.458 65.0703C109.12 65.6644 97.8325 74.5757 90.7034 82.2989C79.7127 94.1807 74.3659 109.033 74.6629 117.944C91.5945 116.162 112.388 108.142 118.923 89.428C119.814 86.7546 120.408 83.4871 121.299 80.2196C121.893 75.1698 123.081 69.526 125.458 65.0703Z" fill="#1D1D1B"/>
<path d="M14.9619 62.9909C52.6867 61.2086 74.371 102.201 71.9946 120.321C52.6867 119.132 30.4083 109.627 23.5762 90.3191C20.6058 82.8929 20.9028 69.8229 14.9619 62.9909Z" fill="#FE344C"/>
<path d="M73.7777 122.4H71.6983C53.2815 121.212 28.9238 112.3 21.2006 90.9132C20.0125 87.9427 19.4184 84.6752 18.8243 80.8136C17.6361 74.5757 16.4479 68.3377 13.1804 64.4761L10.21 60.9116L14.6656 60.6146C34.5677 59.7234 48.8258 70.12 56.8461 79.0314C69.619 92.9925 75.2629 110.518 73.7777 120.321V122.4ZM19.1213 65.0702C21.4977 69.5259 22.3888 74.8727 23.28 79.9225C23.874 83.487 24.4681 86.7545 25.3593 89.1309C32.1913 107.845 52.9845 115.865 69.619 117.647C69.9161 108.736 64.5692 93.8836 53.5786 82.0018C47.0436 74.5757 35.4588 65.6643 19.1213 65.0702Z" fill="#1D1D1B"/>
<path d="M78.5298 120.321C78.5298 121.509 75.5593 122.4 72.2918 122.4C68.7273 122.4 65.7568 121.509 65.7568 120.321C65.7568 119.132 68.7273 118.241 71.9948 118.241C75.8564 117.944 78.5298 119.132 78.5298 120.321Z" fill="#1D1D1B"/>
</svg>
