<svg width="150" height="150" viewBox="0 0 150 150" fill="none" xmlns="http://www.w3.org/2000/svg">
<rect width="150" height="150" fill="white"/>
<path d="M46.2598 47.8564C73.4946 59.2505 86.2783 90.654 75.162 117.889C47.9272 106.495 34.8656 75.0912 46.2598 47.8564Z" fill="#EC0121"/>
<path d="M76.2683 120.668L74.323 119.834C45.9765 108.162 32.637 75.3691 44.3091 47.0226L45.1428 45.0773L47.0881 45.911C75.4346 57.5831 88.7741 90.376 77.102 118.723L76.2683 120.668ZM47.366 50.6354C38.1951 75.647 49.8672 103.993 74.0451 115.11C83.216 90.0981 71.5439 61.7517 47.366 50.6354Z" fill="#1D1D1B"/>
<path d="M75.167 117.889C63.7728 90.654 76.8344 59.2505 104.069 47.8564C115.186 75.0912 102.402 106.495 75.167 117.889Z" fill="#EC0121"/>
<path d="M74.05 120.668L73.2163 118.723C61.5442 90.376 74.8837 57.5831 103.23 45.911L105.176 45.0773L106.009 47.0226C117.681 75.3691 104.342 108.162 75.9954 119.834L74.05 120.668ZM102.674 50.6354C78.4965 61.7517 66.8244 90.0981 75.9954 115.11C100.451 103.716 112.123 75.647 102.674 50.6354Z" fill="#1D1D1B"/>
<path d="M91.2679 61.4738C90.4342 58.4168 89.3225 53.1366 85.7097 47.8564C83.4865 44.7994 77.9284 38.6854 75.1493 32.8494C72.3702 38.6854 66.8121 44.7994 64.5889 47.8564C60.9761 53.1366 59.5865 58.4168 59.0307 61.4738C59.0307 61.4738 57.3633 67.8656 57.9191 75.3691C58.4749 93.7109 73.7598 115.943 75.1493 117.889C80.7074 111.497 91.8237 96.49 92.6574 75.647C92.6574 70.3668 92.1016 65.6424 91.2679 61.4738Z" fill="#EC0121"/>
<path d="M74.874 121.224L73.2065 119C72.9286 118.723 56.2543 95.3784 55.4205 75.647C55.1426 67.8656 56.5322 61.4738 56.5322 61.1959C57.3659 57.3052 59.0333 52.3029 62.3682 47.0226C63.2019 45.911 64.3135 44.5215 65.4252 42.854C67.9263 39.7971 70.9833 35.9064 72.9286 32.0157L75.1519 28.125L77.0972 32.0157C78.7647 35.6285 81.8216 39.5192 84.3228 42.5761C85.7123 44.2436 86.824 45.6331 87.6577 47.0226C91.5484 52.5808 92.9379 58.1389 93.4937 61.1959V61.4738C94.3274 66.1982 94.8832 70.9226 94.6053 75.9249C94.0495 95.3784 84.6007 110.385 76.5414 119.556L74.874 121.224ZM75.1519 37.018C73.2065 40.075 70.9833 42.854 69.038 45.3552C67.9263 47.0226 66.8147 48.1343 65.981 49.2459C62.3682 54.5261 61.2566 59.8063 60.7008 62.3075C60.7008 62.3075 59.3112 68.4214 59.5891 75.647C60.1449 90.376 70.9833 108.44 75.1519 114.554C82.0996 105.939 89.8809 92.5993 90.4367 75.647C90.4367 71.2005 90.1588 66.4761 89.3251 62.3075C88.4914 59.2505 87.3798 54.5261 84.0449 49.5238C83.4891 48.4122 82.3775 47.0226 80.9879 45.3552C79.0426 42.854 76.8193 40.075 75.1519 37.018Z" fill="#1D1D1B"/>
<path d="M128.798 67.0319C93.5039 65.3645 73.2168 103.716 75.44 120.668C93.5039 119.556 114.347 110.663 120.739 92.5993C123.518 85.6516 122.962 73.4237 128.798 67.0319Z" fill="#EC0121"/>
<path d="M74.0443 121.502L73.2105 120.668C72.0989 111.497 77.1012 95.1005 89.0512 82.0389C96.8326 73.7017 109.894 63.697 128.514 64.8087L132.683 65.0866L129.903 68.4214C126.569 72.0342 125.735 78.1482 124.623 83.7063C124.067 87.3191 123.512 90.376 122.4 93.1551C115.174 113.164 92.3861 121.502 75.1559 122.613L74.0443 121.502ZM124.901 68.9772C109.616 69.5331 99.0558 77.8703 92.3861 85.0958C82.1035 96.2121 77.1012 110.107 77.3791 118.445C93.2198 116.777 112.673 109.274 118.787 91.7656C119.621 89.2644 120.177 86.2074 121.01 83.1505C121.566 78.4261 122.678 73.1458 124.901 68.9772Z" fill="#1D1D1B"/>
<path d="M21.5107 67.0319C56.8049 65.3645 77.092 103.716 74.8688 120.668C56.8048 119.556 35.9619 110.663 29.57 92.5993C26.791 85.6516 27.0689 73.4237 21.5107 67.0319Z" fill="#EC0121"/>
<path d="M76.5403 122.613H74.595C57.3648 121.502 34.5765 113.164 27.3509 93.1551C26.2393 90.376 25.6835 87.3191 25.1276 83.7063C24.016 77.8703 22.9044 72.0342 19.8474 68.4214L17.0684 65.0866L21.237 64.8086C39.8567 63.9749 53.1962 73.7017 60.6997 82.0388C72.6496 95.1004 77.9299 111.497 76.5403 120.668V122.613ZM25.4056 68.9772C27.6288 73.1458 28.4625 78.1482 29.2962 82.8726C29.8521 86.2074 30.4079 89.2644 31.2416 91.4877C37.6334 108.996 57.0869 116.499 72.6496 118.167C72.9275 109.829 67.9252 95.9342 57.6427 84.8179C51.5288 77.8703 40.6904 69.5331 25.4056 68.9772Z" fill="#1D1D1B"/>
<path d="M80.99 120.668C80.99 121.779 78.211 122.613 75.154 122.613C71.8191 122.613 69.04 121.779 69.04 120.668C69.04 119.556 71.8191 118.723 74.8761 118.723C78.4889 118.445 80.99 119.556 80.99 120.668Z" fill="#1D1D1B"/>
</svg>
