<svg width="67" height="42" viewBox="0 0 67 42" fill="none" xmlns="http://www.w3.org/2000/svg">
    <path d="M66.95 8.94324C66.9225 8.91552 66.8949 8.88779 66.8674 8.87393C66.5781 8.73531 65.8756 9.05414 65.6001 9.05414C65.297 9.05414 65.0077 9.01255 64.6771 8.97096C64.2088 8.90165 63.7542 8.84621 63.2858 8.84621C63.0654 8.84621 62.845 8.86007 62.6384 8.88779C61.9359 8.98482 61.2884 9.22047 60.6961 9.56702C59.5114 10.274 58.6436 11.4661 58.313 12.8384C57.9686 12.9216 57.6105 12.9909 57.2523 13.0463C56.3294 13.1988 55.3789 13.2958 54.4697 13.379C54.1116 13.4067 53.7672 13.4483 53.409 13.4899C52.7891 13.5592 52.1968 13.6285 51.6458 13.7256H51.6045C51.5769 13.7256 51.5494 13.7394 51.5218 13.7394C50.9846 13.8365 50.4611 13.9335 49.9515 14.0582C49.9239 13.9889 49.8964 13.9058 49.8688 13.8365C49.9652 13.6701 50.0892 13.5176 50.2407 13.3652C50.654 12.9216 51.1774 12.5889 51.6734 12.2562C51.8524 12.1453 52.0315 12.0206 52.1968 11.8958H52.2106C52.9407 11.8542 53.6708 11.674 54.3595 11.3968C55.6957 10.8423 56.7426 9.95515 57.4176 8.81848C58.1615 7.55706 58.437 6.05998 58.2166 4.59063C58.1615 4.23023 57.7895 4.46588 57.6793 4.63222C57.5554 4.81242 57.5278 5.06194 57.3901 5.24214C57.1421 5.58868 56.7839 5.85206 56.412 6.05999C56.1503 6.21247 55.861 6.33722 55.5855 6.47584C55.2687 6.61446 54.9518 6.76694 54.6488 6.94714C54.1391 7.2521 53.6845 7.65409 53.3126 8.16698C52.555 9.19275 52.2106 10.4265 51.9902 11.3968C51.7973 11.5354 51.6045 11.674 51.4116 11.7988C51.1499 11.979 50.8882 12.1592 50.6264 12.3394C50.2407 12.6305 49.9377 12.9077 49.7035 13.185C49.6484 12.9909 49.6071 12.7968 49.5382 12.6166C49.8826 12.0067 50.0203 11.272 49.9239 10.5373C49.8412 9.95515 49.5933 9.4284 49.3453 8.91552C49.1938 8.5967 49.0285 8.27787 48.9183 7.93133C48.8494 7.73726 48.8494 7.30755 48.5739 7.2521C48.2571 7.19665 48.2158 7.75112 48.1331 7.97291C47.9954 8.34718 47.8025 8.69373 47.5959 9.04027C47.4995 9.20661 47.3893 9.35909 47.2791 9.52544C46.8245 10.2047 46.3699 10.8978 46.2459 11.7156C46.2322 11.771 46.2322 11.8265 46.2322 11.8819C46.1219 11.9235 46.0117 11.9374 45.9429 11.9374C45.7087 11.9374 45.6536 11.7295 45.5985 11.2304C45.5847 11.1057 45.5709 10.9809 45.5572 10.8562C45.5021 10.5512 45.4056 10.2462 45.3092 9.92743C45.2403 9.70564 45.1026 9.40068 44.8546 9.15117C44.4827 8.79076 43.973 8.63828 43.5184 8.54125L42.5404 8.04222C42.3889 7.97291 42.2373 7.88974 42.0996 7.80657C42.5266 7.16893 42.9123 6.4897 43.2292 5.78275C43.2429 5.78275 43.2567 5.79661 43.2843 5.79661C44.3863 5.81047 45.7225 5.64413 46.3424 4.32726C46.5214 4.34112 46.7281 4.23023 46.8245 4.0223C46.976 3.68961 46.8934 3.24604 46.6316 3.0797C46.3561 2.89949 46.0118 3.06584 45.9153 3.45397C45.8602 3.66189 45.9015 3.8421 45.998 3.98071C45.998 3.99458 46.0117 4.0223 46.0117 4.03616C45.4607 4.82628 44.6893 5.15897 43.8766 5.20055C44.5378 4.54905 45.2954 3.67575 45.4883 2.66384C45.626 2.6777 45.7638 2.63612 45.8602 2.55295C46.0117 2.41433 46.0944 2.15095 45.9842 1.94303C45.9842 1.94303 45.9842 1.94303 45.9842 1.92917C45.9291 1.40242 45.3781 1.34697 45.0888 1.62421C44.9511 1.74896 44.896 1.99848 44.9373 2.20641C44.9786 2.37275 45.075 2.4975 45.199 2.56681C44.9924 3.0797 44.7858 3.551 44.4552 3.98071C44.2347 4.27181 43.973 4.52133 43.7251 4.75698C43.7526 4.4936 43.7251 4.23023 43.7388 3.98071C43.7526 3.60645 43.7939 3.21831 43.8353 2.84404C44.0143 2.80246 44.1521 2.66384 44.221 2.45592C44.2623 2.34502 44.2761 2.2064 44.2347 2.08165C44.221 2.05392 44.221 2.04006 44.2072 2.01234C44.2072 1.99847 44.2072 1.98462 44.1934 1.98462C44.0419 1.48559 43.4358 1.52718 43.2429 1.97075C43.1052 2.30344 43.2429 2.66384 43.5047 2.80246C43.3394 3.38466 43.1465 4.13319 43.1878 4.74311C42.9399 4.42429 42.7057 4.10547 42.5679 3.67575C42.4026 3.19059 42.3475 2.66384 42.3475 2.15095C42.5128 2.13709 42.6506 1.99848 42.7057 1.83213C42.7746 1.63807 42.747 1.40242 42.623 1.22222C42.3751 0.847948 41.8654 1.06974 41.7965 1.48559C41.7552 1.72124 41.8654 1.92917 42.0307 2.0262C41.8379 3.19059 42.1134 4.61836 42.8986 5.47779C42.8848 5.49165 42.8848 5.49165 42.871 5.50551C42.4853 6.24019 42.0445 6.91942 41.5486 7.55706C41.3971 7.47389 41.2455 7.37685 41.094 7.27982C40.9976 7.22438 40.9149 7.15507 40.8185 7.09962C40.8323 7.09962 40.8461 7.08576 40.8598 7.08576C40.6256 6.26791 40.3088 5.45006 39.9093 4.65994C39.9231 4.64608 39.9369 4.63222 39.9507 4.61836C40.6532 3.77279 41.3557 2.6084 40.7221 1.29153C40.8461 1.15291 40.8874 0.931118 40.791 0.723191C40.6394 0.390507 40.2262 0.182579 39.9369 0.279611C39.6201 0.376644 39.5374 0.764777 39.7716 1.0836C39.8956 1.24994 40.0746 1.34697 40.2399 1.36083C40.2537 1.3747 40.2675 1.37469 40.295 1.38856C40.5705 2.3173 40.3364 3.13515 39.868 3.78665C39.7716 2.85791 39.565 1.72124 38.9037 0.931118C38.9864 0.834085 39.0553 0.709328 39.0415 0.57071C39.0277 0.362783 38.8762 0.140995 38.642 0.0994095C38.642 0.0994095 38.642 0.0994095 38.6282 0.0994095C38.1737 -0.191688 37.8017 0.210306 37.8293 0.612298C37.8431 0.792501 37.9946 1.00043 38.1874 1.09746C38.339 1.16677 38.5043 1.16677 38.642 1.12518C38.9037 1.61035 39.1517 2.06779 39.2757 2.59453C39.3583 2.95494 39.3997 3.30149 39.4134 3.64803C39.2344 3.46783 39.014 3.31535 38.8211 3.14901C38.5456 2.89949 38.2563 2.63612 37.9946 2.35888C38.0772 2.19254 38.0497 1.99848 37.9395 1.81827C37.8706 1.70738 37.788 1.62421 37.664 1.56876C37.6364 1.5549 37.6227 1.5549 37.5951 1.5549C37.5813 1.5549 37.5813 1.54104 37.5676 1.54104C37.0854 1.34697 36.741 1.85986 36.9614 2.27571C37.1268 2.59454 37.4987 2.70543 37.7604 2.59453C38.1186 3.0797 38.5594 3.70348 39.0691 4.05002C38.6696 4.05002 38.2839 4.0223 37.8568 3.86982C37.3885 3.68962 36.9339 3.41238 36.5344 3.09356C36.6308 2.95494 36.6033 2.76088 36.5069 2.6084C36.3967 2.42819 36.19 2.30343 35.9834 2.28957C35.5426 2.24799 35.3911 2.7886 35.6666 3.09356C35.8181 3.27376 36.0523 3.31535 36.2314 3.24604C37.0165 4.11933 38.2976 4.81242 39.4548 4.71539C39.4548 4.72925 39.4548 4.74311 39.4685 4.75698C39.7165 5.33917 39.9369 5.94909 40.1022 6.54515C40.0471 6.4897 39.9782 6.43426 39.9231 6.36495L39.8405 6.28177C39.5374 5.97682 39.2344 5.67185 38.8624 5.4362C38.5318 5.22828 38.1737 5.11738 37.8017 5.11738C37.6915 5.11738 37.5951 5.13124 37.4849 5.14511C37.113 5.21441 36.7548 5.38076 36.4242 5.5471C36.3553 5.58868 36.2865 5.61641 36.2038 5.65799C35.9283 5.79661 35.5977 5.92137 35.2533 5.92137C35.1844 5.92137 35.1018 5.92137 35.0329 5.9075C34.8676 5.87978 34.7023 5.85206 34.5508 5.85206C34.413 5.85206 34.2753 5.86592 34.1651 5.9075C33.9034 5.99068 33.683 6.12929 33.4626 6.26791L33.4074 6.29564C33.1457 6.46198 32.884 6.62832 32.6498 6.85011C32.5121 6.97487 32.4156 7.16893 32.3192 7.34913C32.1952 7.58478 32.0713 7.8343 31.906 7.87588C31.8922 7.87588 31.8646 7.87588 31.8509 7.87588C31.6305 7.87588 31.2723 7.64023 31.1483 7.46003C31.0519 7.30755 30.9692 7.14121 30.8866 6.961C30.7351 6.64218 30.5835 6.32336 30.308 6.10157C30.1841 6.00454 30.0739 5.94909 29.9637 5.94909C29.6881 5.94909 29.5091 6.25405 29.3438 6.54515C29.1922 6.80852 29.0269 7.08576 28.8203 7.09962C28.7239 7.09962 28.5861 7.04417 28.4484 6.97487C28.3106 6.91942 28.1591 6.85011 28.0213 6.83625C27.9387 6.82239 27.856 6.82238 27.7734 6.82238C27.6081 6.82238 27.4566 6.83625 27.2913 6.87783C26.878 6.961 26.5336 7.18279 26.2719 7.36299C26.2168 7.40458 26.1617 7.43231 26.1204 7.47389C26.0377 7.50161 25.9551 7.55706 25.8724 7.59865C25.7347 7.37686 25.6107 7.15507 25.4729 6.93328C25.2801 6.61446 25.1148 6.26791 24.8668 6.00454C24.6051 5.74116 24.2469 5.64413 23.8888 5.69958C23.6546 5.7273 23.448 5.82434 23.2414 5.93523C22.8419 5.08966 22.346 4.28567 21.7536 3.56486C21.4644 3.20445 21.0924 2.81632 20.5965 2.84404C20.3761 2.85791 20.197 3.03811 19.9766 2.99653C19.7425 2.95494 19.6047 2.71929 19.3843 2.63612C19.1364 2.55295 18.8608 2.58067 18.6267 2.70543C18.1583 2.19254 17.6211 1.67966 17.0425 1.30539C16.8221 1.16677 16.6293 1.16677 16.4502 1.3747C16.4089 1.41628 16.1334 1.91531 16.1196 1.90144C15.5961 1.72124 15.0727 1.52718 14.5492 1.34697C14.3013 1.2638 14.012 1.19449 13.7778 1.06974C13.6263 1.00043 13.5436 0.861809 13.3783 0.94498C12.91 1.13905 13.1028 2.12323 13.1579 2.4975C13.213 2.87177 13.337 3.24604 13.4747 3.60644C13.5436 3.78665 13.6263 3.98071 13.7227 4.16092C13.7503 4.23023 13.9018 4.61836 13.9569 4.63222C13.7778 4.59064 13.5849 4.60449 13.4196 4.71539C13.2681 4.81242 13.1579 4.97877 13.1441 5.17283C13.1304 5.35303 13.213 5.51937 13.2957 5.68571C13.5712 6.24019 13.9018 6.76694 14.2599 7.26596C14.1084 7.30755 13.9707 7.39072 13.8742 7.5432C13.6814 7.88975 13.7916 8.29173 14.012 8.59669C14.2599 8.92938 14.5492 9.23434 14.8247 9.55316C15.0589 9.81654 15.2793 10.0799 15.5135 10.3571C15.3068 10.468 15.1002 10.6067 14.9349 10.773C14.8523 10.8423 14.8385 10.9948 14.8936 11.0918C15.4033 11.8542 16.1471 12.4364 17.0012 12.7414C16.8772 12.9354 16.6844 13.1295 16.767 13.379C16.8359 13.5592 17.0425 13.7117 17.1803 13.8226C17.4007 14.0028 17.6486 14.1414 17.9104 14.28C17.8277 14.6127 17.7037 14.9315 17.5798 15.2365C17.3731 15.7632 17.1665 16.3039 17.1252 16.8861C17.0563 17.995 17.5109 19.0069 18.3098 19.6168C18.5027 19.7554 18.7093 19.8802 18.9435 19.9911C18.8884 20.2267 18.8333 20.4624 18.7644 20.6981C18.5716 20.6426 18.3787 20.601 18.2134 20.5733C17.9379 19.7 17.1803 19.1317 16.5604 18.7297C16.1196 18.4524 15.6099 18.2168 15.2655 17.8148C14.9625 17.4682 14.8523 17.0108 14.6732 16.595C14.3977 15.9296 14.0395 15.2919 13.5712 14.7513C13.1579 14.2662 12.6758 13.8919 12.1523 13.6285C11.8355 13.4761 11.5049 13.3513 11.1881 13.2265C10.8988 13.1156 10.6095 13.0048 10.334 12.88C9.783 12.6166 9.28709 12.2424 9.01159 11.6879C8.88761 11.4245 8.65343 11.0918 8.47435 11.4938C8.25395 11.9928 8.4468 12.88 8.557 13.4067C8.73608 14.2384 9.06669 15.0286 9.54882 15.7217C10.2927 16.8029 11.4085 17.6207 12.786 18.0782C13.6676 18.3693 14.7007 18.2722 15.541 18.7435C16.0645 19.0346 16.6017 19.3396 17.0425 19.7416C17.2905 19.9634 17.4696 20.199 17.6073 20.4485C17.0287 20.3376 16.4364 20.2683 15.8028 20.199C15.7752 20.1852 15.7477 20.1852 15.7063 20.1852H15.6788H15.665C15.1002 20.1297 14.5079 20.102 13.888 20.0743C13.5298 20.0604 13.1855 20.0604 12.8273 20.0465C11.9044 20.0188 10.9539 20.005 10.0172 19.9079C9.47994 19.8525 9.16311 19.7 8.81873 19.2703C8.51568 18.896 8.3366 18.4524 8.04732 18.0782C7.59274 17.496 7.00041 17.0247 6.3392 16.692C5.71931 16.387 5.05811 16.2068 4.35557 16.1514C4.25914 16.1514 4.16272 16.1375 4.06629 16.1375C3.48773 16.1375 2.90918 16.2484 2.33062 16.387C1.93114 16.4702 1.55921 16.5534 1.20105 16.5534C0.884223 16.5534 0.622494 16.4979 0.402091 16.387C0.374541 16.3732 0.360765 16.3593 0.333215 16.3593C0.305665 16.3454 0.278114 16.3454 0.250564 16.3454C0.209238 16.3454 0.181688 16.3593 0.154137 16.3732C0.140362 16.3732 0.126587 16.387 0.112812 16.4009C0.0301608 16.4563 -0.0111648 16.5395 0.0026104 16.6365C0.0026104 16.692 0.0163856 16.7336 0.043936 16.7752C0.705145 18.1198 1.72451 19.3119 2.96428 20.199C4.24537 21.1278 5.38871 21.5852 6.43562 21.5852C6.65603 21.5852 6.87643 21.5713 7.08306 21.5298C7.48254 21.4466 7.86824 21.308 8.21262 21.0723C8.5019 20.8783 8.74986 20.5733 9.09424 20.4485C9.46617 20.3099 9.97585 20.4624 10.3753 20.4901C11.3258 20.5733 12.2763 20.5872 13.2406 20.6149C13.5712 20.6287 13.9018 20.6287 14.2186 20.6426C13.2268 21.2248 12.6069 22.4585 11.3671 22.4585C11.2156 22.4585 11.0779 22.4446 10.9126 22.4446C10.6922 22.4308 10.4718 22.4169 10.2651 22.4169C9.92075 22.4169 9.63147 22.4446 9.36974 22.5139C8.40548 22.7357 7.55142 23.3595 7.02796 24.2328C6.98663 24.2883 6.95908 24.3576 6.91776 24.413C6.76623 24.6625 6.62848 24.9259 6.42185 25.1338C6.04992 25.522 5.29228 25.8824 6.21522 26.0626C7.04173 26.2289 7.86824 26.423 8.72231 26.423C9.06669 26.423 9.38352 26.3952 9.70035 26.3398C10.3616 26.215 10.9126 25.9655 11.3534 25.619C11.7391 25.314 12.0697 24.8843 12.3176 24.3576C12.5243 23.9279 12.662 23.4843 12.7584 23.0268C12.9237 22.2783 13.7503 21.5852 14.3564 21.1971C14.7834 20.9198 15.238 20.7674 15.7063 20.7535C16.3124 20.8089 16.8634 20.8783 17.3869 20.9753C17.8277 21.0585 18.2685 21.1416 18.6818 21.2525C18.668 21.2941 18.6542 21.3218 18.6404 21.3634C18.5991 21.4604 18.5578 21.5575 18.5165 21.6545C18.2134 21.5575 17.8828 21.502 17.5522 21.502C17.5247 21.502 17.4833 21.502 17.4558 21.502C16.5742 21.5298 15.7339 22.0288 15.2655 22.7912C15.2104 22.8882 15.1553 22.9852 15.1002 23.0961C14.99 23.3179 14.8798 23.5952 14.6732 23.7476C14.5217 23.8585 14.2462 23.817 14.1497 23.9833C13.9844 24.2189 14.2737 24.413 14.439 24.5239C14.7007 24.7041 14.99 24.8566 15.2931 24.9675C15.4584 25.0229 16.0645 25.2724 16.2298 25.1615C16.1471 25.217 16.092 25.3418 16.1196 25.4526C16.1609 25.6051 16.2022 25.7437 16.2573 25.8962C15.3482 25.9655 14.4803 26.3398 13.8054 26.9497C13.7227 27.019 13.7089 27.1715 13.764 27.2685C13.888 27.4765 14.0533 27.6567 14.2324 27.823C13.9569 28.0171 13.6676 28.2111 13.3921 28.4052C13.0477 28.6409 12.6896 28.8627 12.359 29.126C12.0697 29.3617 11.8493 29.7221 11.9457 30.1102C11.987 30.2904 12.111 30.4152 12.2488 30.4983C11.7804 30.8865 11.3534 31.3023 10.9539 31.7459C10.8437 31.8707 10.7197 32.0093 10.6646 32.1895C10.6095 32.3697 10.6508 32.5499 10.761 32.6885C10.8988 32.8687 11.0916 32.938 11.2983 32.9519C11.1743 32.9519 10.7473 33.5895 10.6646 33.7004C10.4442 33.9777 10.2514 34.2688 10.0998 34.5737C9.92075 34.9203 9.36974 35.9599 9.81055 36.2926C9.9483 36.4035 10.1963 36.3342 10.3478 36.3203C10.6095 36.2926 10.8712 36.2787 11.133 36.251C11.6564 36.2094 12.1799 36.1678 12.7033 36.1262C12.786 36.3619 12.8549 36.5975 12.9375 36.8332C12.9788 36.9579 13.1166 37.0688 13.2543 37.0134C13.9844 36.75 14.6732 36.4173 15.3206 36.0015C15.4997 36.1817 15.7614 36.2649 16.0232 36.251C16.3124 36.2371 16.5604 36.0985 16.7808 35.9322C16.8497 36.0985 16.9736 36.251 17.1527 36.3342C17.6486 36.5698 18.1445 36.2787 18.5302 35.9876C19.2879 35.4331 19.9766 34.7816 20.5827 34.0608C20.7343 34.2133 20.8996 34.3519 21.1062 34.4351C21.4506 34.5876 21.8225 34.6014 22.1531 34.4212C22.4699 34.241 22.7179 33.9361 22.9659 33.6866C23.1312 33.5202 23.3102 33.3539 23.4755 33.1875C23.8888 33.2846 24.3158 33.3539 24.7429 33.3955C24.798 33.3955 24.8668 33.3955 24.9357 33.3955C24.9908 33.3955 25.0459 33.3955 25.101 33.3955C25.1561 33.3955 25.225 33.3955 25.2801 33.3955C25.528 33.3955 25.776 33.4093 25.9413 33.5479C26.1341 33.7004 26.1617 33.9222 26.203 34.1994C26.2306 34.4628 26.2719 34.7401 26.4785 34.9618C26.6163 35.1005 26.7954 35.1975 27.002 35.2391C27.0846 35.2529 27.1673 35.2668 27.2362 35.2668C26.7954 35.5718 26.3546 35.9044 25.9413 36.2649C25.9275 36.251 25.9137 36.251 25.9 36.2371C24.9082 35.752 23.6271 35.35 22.5113 36.2787C22.346 36.1817 22.1256 36.1955 21.9465 36.348C21.671 36.5837 21.5608 37.0273 21.7261 37.2906C21.9052 37.5679 22.2771 37.5679 22.5388 37.2629C22.6766 37.0966 22.7179 36.9164 22.6904 36.75C22.6904 36.7362 22.7041 36.7084 22.7041 36.6946C23.5444 36.2094 24.3847 36.2371 25.1148 36.5421C24.2469 36.8471 23.2 37.3184 22.5939 38.1501C22.4837 38.0807 22.346 38.053 22.2082 38.0946C22.0154 38.1501 21.8225 38.358 21.8501 38.5936C21.8501 38.5936 21.8501 38.5936 21.8501 38.6075C21.6848 39.1204 22.1531 39.3976 22.525 39.2729C22.7041 39.2174 22.8694 39.0095 22.9108 38.8154C22.9521 38.6491 22.9108 38.4966 22.8281 38.3718C23.2276 37.9976 23.6133 37.651 24.0954 37.4015C24.4122 37.2352 24.7566 37.1243 25.0872 37.0134C24.9633 37.2352 24.8668 37.4847 24.7429 37.7203C24.5638 38.053 24.3709 38.3857 24.1781 38.7184C23.999 38.6768 23.8061 38.7461 23.6684 38.8986C23.5857 38.9818 23.5169 39.0927 23.5031 39.2174C23.5031 39.2451 23.5031 39.2729 23.5031 39.2867C23.5031 39.3006 23.5031 39.3145 23.5031 39.3145C23.4342 39.8273 23.999 40.0491 24.3571 39.7303C24.6189 39.4947 24.6464 39.1065 24.4674 38.8709C24.8531 38.4134 25.349 37.8174 25.5694 37.249C25.6658 37.6372 25.7347 38.0253 25.6796 38.4689C25.6245 38.9679 25.4592 39.4808 25.2388 39.9382C25.0872 39.8828 24.9082 39.9521 24.7842 40.0769C24.6464 40.2293 24.5638 40.4511 24.6051 40.659C24.674 41.1026 25.225 41.1303 25.4592 40.7838C25.5969 40.5897 25.5831 40.3541 25.4729 40.2016C26.1341 39.2313 26.4923 37.8174 26.1341 36.6946C26.1479 36.6946 26.1617 36.6807 26.1617 36.6807C26.754 36.2233 27.3739 35.8351 28.0076 35.4886C28.104 35.5579 28.2004 35.6411 28.3106 35.7242C28.352 35.7658 28.3933 35.7936 28.4484 35.8351C28.6688 36.0153 28.8892 36.154 29.1234 36.2371C29.082 36.5975 29.0545 36.9718 29.0407 37.3322C29.0269 37.3322 29.0132 37.3322 28.9856 37.3461C28.0213 37.7342 26.9056 38.3857 26.8505 39.7719C26.6852 39.8273 26.5474 39.9937 26.5336 40.2155C26.5199 40.562 26.7678 40.9224 27.0433 40.9779C27.3464 41.0333 27.5943 40.7561 27.5392 40.3818C27.5117 40.1877 27.4015 40.0353 27.2775 39.9382C27.2637 39.9244 27.2637 39.9105 27.2499 39.8966C27.4428 38.9956 28.0076 38.4134 28.6963 38.0807C28.352 38.8986 28.0213 39.9521 28.2142 40.9086C28.0902 40.9501 27.98 41.0333 27.9249 41.1442C27.8423 41.3244 27.8698 41.5878 28.0351 41.7264C28.0351 41.7264 28.0351 41.7264 28.0489 41.7264C28.2969 42.17 28.7928 42.0175 28.9443 41.671C29.0132 41.5046 28.9856 41.269 28.8616 41.1026C28.7652 40.964 28.6275 40.8947 28.4897 40.8808C28.4897 40.3541 28.4897 39.8551 28.6137 39.3699C28.7101 39.0372 28.8341 38.7184 28.9718 38.4134C29.0407 38.6491 29.1647 38.8709 29.2473 39.1065C29.3713 39.4392 29.4815 39.7996 29.5779 40.1462C29.4402 40.2432 29.3713 40.4234 29.3851 40.6313C29.3989 40.7561 29.4264 40.867 29.5091 40.964C29.5228 40.9779 29.5366 41.0056 29.5642 41.0195C29.5642 41.0333 29.5779 41.0333 29.5779 41.0472C29.8948 41.4214 30.4045 41.1581 30.4182 40.7006C30.4182 40.3541 30.1565 40.0907 29.8948 40.063C29.8259 39.4947 29.7157 38.76 29.454 38.2471C29.7983 38.4273 30.1014 38.6214 30.3907 38.954C30.7075 39.3144 30.9555 39.758 31.1483 40.2155C31.0106 40.2848 30.9417 40.465 30.9555 40.6313C30.9692 40.8254 31.0794 41.0333 31.2447 41.1303C31.6029 41.366 31.9748 40.9917 31.8784 40.6036C31.8233 40.3818 31.658 40.2432 31.4651 40.2155C31.2034 39.1204 30.4458 37.9699 29.4264 37.5124C29.4264 37.4986 29.4264 37.4847 29.4402 37.4708C29.4677 37.0966 29.5228 36.7223 29.5917 36.348C29.7432 36.3757 29.9085 36.3757 30.1014 36.3757C30.3631 36.3757 30.6386 36.348 30.9004 36.3342C31.0932 36.3203 31.2861 36.3064 31.4789 36.2926C31.5478 36.2926 31.6029 36.2926 31.6718 36.2926C31.9611 36.2926 32.1815 36.3203 32.3881 36.3896C32.6911 36.4866 32.9253 36.7084 33.1457 36.9579C33.4074 37.2352 33.6967 37.5124 34.0824 37.6788C34.3442 37.7896 34.661 37.8312 35.0191 37.8312C35.088 37.8312 35.1569 37.8312 35.2258 37.8312C35.46 37.8174 35.6941 37.7897 35.9283 37.7619C36.0798 37.7481 36.2451 37.7203 36.3967 37.7065C36.6308 37.6926 36.8788 37.6788 37.113 37.6788C37.3058 37.6788 37.5125 37.6788 37.7053 37.6926C38.1323 37.7203 38.5731 37.7896 39.0002 37.8867C39.0691 37.9005 39.1379 37.9144 39.2206 37.9421C39.565 38.0253 39.9231 38.1085 40.295 38.1085H40.3364C41.0802 38.0946 41.7552 37.651 42.1409 36.9164C42.2373 36.7362 42.2787 36.5282 42.32 36.3342C42.4026 35.9599 42.4853 35.6134 42.8021 35.4747C42.8848 35.4331 42.9812 35.4193 43.0776 35.4193C43.3256 35.4193 43.6011 35.5579 43.8766 35.6965C44.1796 35.849 44.4827 36.0153 44.8133 36.0153C44.8409 36.0153 44.8546 36.0153 44.8822 36.0153C45.2817 35.9876 45.6674 35.849 45.9842 35.5995C46.3286 35.3361 46.5352 34.9618 46.7143 34.5876C46.8796 34.241 46.9898 34.0886 47.1826 33.9777C47.8989 34.241 48.6566 34.4628 49.3729 34.6014C49.3729 34.6153 49.3729 34.643 49.3729 34.6708C49.6346 36.0569 50.3372 37.4847 51.8387 37.8312C51.8662 38.053 52.0453 38.261 52.307 38.3164C52.7203 38.4134 53.2162 38.1916 53.3402 37.859C53.4779 37.4986 53.1886 37.1381 52.734 37.1243C52.4861 37.1104 52.2795 37.2075 52.1417 37.3461C52.1279 37.3599 52.1004 37.3599 52.0866 37.3738C51.0397 36.9302 50.4611 36.1262 50.227 35.2114C51.1361 35.8074 52.3346 36.4589 53.533 36.4312C53.5606 36.5837 53.6294 36.7362 53.7672 36.8332C53.96 36.9718 54.2906 36.9995 54.4973 36.8193C54.4973 36.8193 54.4973 36.8193 54.511 36.8055C55.1034 36.5975 55.0207 35.9599 54.635 35.6965C54.4559 35.5718 54.1529 35.5579 53.9325 35.6688C53.7534 35.752 53.6432 35.9044 53.5881 36.0708C52.9544 35.9599 52.3483 35.849 51.7836 35.5718C51.3978 35.3916 51.0535 35.1559 50.7091 34.9203C51.0121 34.8787 51.3014 34.7955 51.6045 34.7401C52.0315 34.6708 52.4861 34.6014 52.9269 34.5599C53.0233 34.7539 53.2162 34.8787 53.4641 34.9064C53.6157 34.9203 53.7534 34.9064 53.8912 34.8371C53.9187 34.8232 53.9463 34.8094 53.96 34.7816C53.9738 34.7816 53.9876 34.7678 54.0014 34.7678C54.5248 34.4628 54.332 33.7697 53.781 33.6727C53.3677 33.5895 52.982 33.8529 52.8993 34.1856C52.1968 34.144 51.2876 34.1024 50.5989 34.3242C50.9019 33.9499 51.205 33.6172 51.6596 33.34C52.1693 33.0351 52.7616 32.8133 53.3402 32.7024C53.3953 32.8826 53.5881 33.0073 53.7947 33.0351C54.0427 33.0628 54.3044 32.9657 54.4697 32.7855C54.8279 32.3974 54.4559 31.8707 53.96 31.8984C53.6845 31.9123 53.4779 32.0925 53.409 32.3142C51.9902 32.4113 50.5438 33.0351 49.6897 34.1994C49.6759 34.1994 49.6622 34.1856 49.6484 34.1856C49.1525 34.047 48.6566 33.8806 48.1469 33.7004C48.4775 33.5202 48.6566 33.2291 48.8494 32.8964C48.8908 32.8271 48.9321 32.744 48.9872 32.6746C49.1525 32.4113 49.4555 32.3142 49.7448 32.2172L49.855 32.1756C50.2545 32.037 50.6815 31.8429 50.8882 31.3994C50.9984 31.1637 51.0259 30.9281 51.0397 30.734C51.0535 30.7063 51.0672 30.6924 51.081 30.6647C51.1637 30.4152 51.1499 30.1102 51.1086 29.8884C51.1086 29.8746 51.1223 29.8607 51.1223 29.8468C51.2601 29.8746 51.4116 29.9161 51.5494 29.9439C51.9351 30.027 52.3483 30.1934 52.7478 30.1518C53.3815 30.0964 53.6845 29.5835 53.8498 29.029C54.7728 29.3478 55.7233 29.5419 56.6875 29.6112C57.1559 29.6528 57.6793 29.5973 57.9686 29.1676C58.0788 29.0151 58.1064 28.8211 58.0788 28.6409C58.3405 28.6686 58.616 28.724 58.8916 28.7102C58.9191 28.7102 58.9329 28.7102 58.9467 28.6963C58.9742 28.6824 58.988 28.6686 59.0018 28.6547C59.1946 28.4745 59.291 28.1834 59.3599 27.9339C60.1313 27.9478 60.9027 27.8785 61.6466 27.726C61.7843 27.6983 61.8532 27.5319 61.8257 27.4072L61.6604 26.6863C62.1287 26.4507 62.5971 26.215 63.0792 25.9794C63.3134 25.8546 63.5476 25.7437 63.7817 25.619C63.9608 25.522 64.195 25.4527 64.2363 25.217C64.2501 25.1477 64.2225 25.0645 64.1812 24.9813C64.0848 24.8011 63.8782 24.6209 63.7542 24.51C63.5062 24.2744 63.2307 24.0665 62.9415 23.9001C62.7073 23.7615 62.4456 23.6506 62.1976 23.5536C62.0461 23.4981 61.5364 23.415 61.4813 23.2625C61.4675 23.2209 61.4675 23.1655 61.4813 23.11C61.5364 22.8744 61.6328 22.6387 61.5088 22.4031C61.4124 22.209 61.2058 22.0981 61.0129 22.0426C60.4206 21.8486 59.8007 21.7238 59.1808 21.6268C59.2497 21.502 59.291 21.3496 59.2497 21.1971C59.1808 20.8228 58.8089 20.5872 58.4507 20.5317C58.0375 20.4624 57.5967 20.4624 57.1697 20.4347C56.8115 20.407 56.4533 20.3931 56.0952 20.3654C56.1641 20.1436 56.2054 19.9079 56.2054 19.6584C56.2054 19.5475 56.1227 19.4228 56.0125 19.4089C55.1034 19.2426 54.1804 19.3673 53.3539 19.7832C53.3126 19.6307 53.285 19.4921 53.2437 19.3396C53.2162 19.2287 53.106 19.1455 52.9958 19.1455C52.7616 19.1594 52.4999 19.1733 52.2657 19.2287C52.2657 19.2148 52.2519 19.201 52.2519 19.1871C52.2106 19.0485 52.1417 18.9237 52.0866 18.799C52.0728 18.7851 52.0728 18.7574 52.0591 18.7435C52.6376 18.5911 53.1748 18.2861 53.6019 17.8841C53.6845 17.8148 53.6983 17.7039 53.657 17.6069C53.6157 17.496 53.5192 17.4267 53.409 17.4267C53.0371 17.4128 52.8029 17.0385 52.6101 16.7058C52.5412 16.595 52.4861 16.4979 52.431 16.4148C52.2795 16.2068 52.1004 16.0266 51.9075 15.8741C51.7836 15.6939 51.6045 15.5276 51.3565 15.3613C51.2463 15.2919 51.1361 15.2226 51.0259 15.1533C50.8055 15.0286 50.5851 14.89 50.4198 14.7097C50.8606 14.5989 51.329 14.5157 51.8387 14.4325C51.8662 14.4325 51.8938 14.4325 51.9213 14.4325C52.3621 14.4325 52.8029 14.5434 53.2162 14.7791C53.7534 15.0702 54.208 15.486 54.6626 15.888L54.8416 16.0543C54.8416 16.0682 54.8416 16.0821 54.8416 16.0959C54.9656 16.692 55.1723 17.288 55.4753 17.7871C55.7646 18.3 56.1227 18.702 56.536 18.9792C57.0043 19.298 57.5691 19.5059 58.2303 19.5752C58.4094 19.603 58.6023 19.603 58.8089 19.603C59.8696 19.603 60.9303 19.2703 61.867 18.9792C61.9634 18.9515 62.0323 18.8822 62.0461 18.7851C62.0598 18.6881 62.0323 18.5772 61.9634 18.5079C61.9359 18.4663 61.9083 18.4247 61.8532 18.4109C61.4124 18.2168 61.1369 17.8287 60.8752 17.4405C60.8339 17.3851 60.7925 17.3296 60.7512 17.2603C60.1726 16.4286 59.2635 15.8741 58.2854 15.7217C58.1201 15.6939 57.9411 15.6801 57.7482 15.6801C57.4176 15.6801 57.1008 15.7217 56.7426 15.7632C56.5222 15.791 56.288 15.8187 56.0539 15.8187C55.7508 15.8187 55.4891 15.7632 55.2825 15.6524C55.2687 15.6385 55.2411 15.6385 55.2273 15.6246L55.0758 15.486C54.5248 15.0008 53.96 14.5157 53.3264 14.1969C53.6432 14.1553 53.9738 14.1276 54.3044 14.0998C55.6957 13.9612 57.1421 13.8365 58.5472 13.5038C58.988 14.086 59.6905 14.4602 60.4895 14.5573C60.6135 14.5711 60.7512 14.585 60.889 14.585C62.0047 14.585 63.1894 14.0444 64.5118 12.9493C65.1593 12.4087 65.724 11.7849 66.2062 11.1057C66.2751 10.6067 67.2255 9.37295 66.95 8.94324ZM53.0509 9.7195C53.3126 9.09572 53.6019 8.59669 53.96 8.1947C54.332 7.77885 54.7865 7.4323 55.3927 7.1412C55.5166 7.08576 55.6544 7.01645 55.7784 6.961C56.1641 6.7808 56.5498 6.6006 56.9079 6.36495C57.0732 6.26791 57.1972 6.10157 57.4038 6.18474C57.5691 6.25405 57.638 6.47584 57.6518 6.64218C57.6656 7.04417 57.4176 7.58478 57.2523 7.94519C56.8804 8.79076 56.3018 9.55316 55.558 10.0938C55.1309 10.4126 54.5386 10.8423 54.0151 10.9671C53.2988 11.1334 53.8774 10.3294 54.0014 10.0938C54.1942 9.7195 54.4559 9.38682 54.6626 9.01255C54.7314 8.88779 54.7865 8.72145 54.7314 8.59669C54.5386 8.666 54.3871 8.81848 54.2355 8.97096C54.0289 9.19275 53.8498 9.44227 53.657 9.67792C53.5055 9.87198 53.3264 10.2324 53.1197 10.3571C52.6652 10.6205 52.9682 9.92743 53.0509 9.7195ZM14.3288 17.2603C13.9018 16.9138 13.5712 16.5534 13.3232 16.1375C13.2681 16.0543 13.1992 16.0128 13.1166 16.0128C13.0202 16.0128 12.9237 16.0682 12.8686 16.1652C12.8273 16.2484 12.8273 16.3454 12.8824 16.4286C13.1855 16.9138 13.5987 17.3574 14.1497 17.7871C13.2268 17.6623 12.3314 17.3435 11.5324 16.8306C10.4855 16.1652 9.68657 15.0979 9.28709 13.8226C9.16311 13.4067 9.06669 12.9909 9.03914 12.5612C9.57637 13.1295 10.3891 13.4345 11.1054 13.7256C11.2432 13.781 11.3809 13.8365 11.5049 13.878C12.1386 14.1276 12.6069 14.4325 13.0064 14.8345C13.3783 15.2088 13.7227 15.6801 14.012 16.29C14.1773 16.6088 14.3288 16.9692 14.4666 17.3712C14.4252 17.3296 14.3839 17.288 14.3288 17.2603ZM8.03355 19.0208C8.006 19.3119 7.75804 19.4228 7.49631 19.4228C7.01418 19.4228 6.64225 19.1594 6.21522 18.9792C5.93972 18.8544 5.36116 18.8822 5.69176 19.2703C5.69176 19.2841 5.70554 19.2841 5.71931 19.298C6.00859 19.6168 6.7249 19.7554 7.11061 19.8663C7.35856 19.9357 7.73049 20.005 7.82692 20.2961C7.96467 20.7258 7.37234 20.8644 7.08306 20.9337C6.89021 20.9753 6.6698 21.003 6.46317 21.003C6.04992 21.003 5.60911 20.9198 5.15453 20.7535C3.95609 20.3238 2.77142 19.4782 1.80716 18.397C1.53166 18.0782 1.20105 17.6623 1.51788 17.2465C1.75206 16.9415 2.30307 16.9554 2.64745 16.8722C3.0607 16.7752 3.48773 16.692 3.88721 16.6643C3.94231 16.6643 3.99742 16.6643 4.05252 16.6643C5.31983 16.6643 6.5596 17.191 7.42744 18.1198C7.64784 18.3415 8.07487 18.702 8.03355 19.0208ZM11.133 25.0507C10.4029 25.716 9.41107 25.8546 8.69476 25.8546C8.48813 25.8546 8.26772 25.8408 8.04732 25.8131C7.57897 25.7576 7.11061 25.6744 6.69735 25.5774C6.94531 25.3418 7.12438 25.0645 7.28969 24.7734C7.53764 24.3576 7.78559 23.9694 8.15752 23.6645C8.52945 23.3595 8.95648 23.1377 9.41107 23.013C9.65902 22.9437 9.92075 22.9159 10.2514 22.9159C10.458 22.9159 10.8712 22.9852 10.8988 23.2348C10.9401 23.6506 9.98962 23.817 9.71412 23.8447C9.54882 23.8724 9.46617 24.011 9.47994 24.1496C9.49372 24.2883 9.59014 24.3853 9.7279 24.3853C9.74167 24.3853 9.75545 24.3853 9.76922 24.3853C10.1825 24.3298 10.582 24.2051 10.9539 24.0249C11.1743 23.914 11.5875 23.4981 11.8493 23.609C12.2625 23.817 11.3258 24.8705 11.133 25.0507ZM47.4995 10.1769C47.5821 10.0522 47.6648 9.92743 47.7336 9.81653C47.8989 9.56702 48.202 8.79076 48.5877 8.86007C49.001 8.94324 49.3453 10.2601 49.3867 10.6067C49.4418 11.078 49.3867 11.5631 49.2351 12.0067C49.2351 12.0206 49.2214 12.0344 49.2214 12.0483C49.1663 11.979 49.0974 11.8958 49.0285 11.8265C48.7392 11.5631 48.3535 11.4245 47.9127 11.4245C47.7061 11.4245 47.4995 11.4522 47.2653 11.5077C47.1138 11.5493 46.9622 11.5908 46.8107 11.6463C46.9209 11.1057 47.2102 10.6067 47.4995 10.1769ZM30.68 29.8191C30.6524 29.5696 30.5284 29.3478 30.3907 29.126C30.2392 28.8904 30.1014 28.6547 30.1565 28.4052C30.1703 28.322 30.2116 28.225 30.2805 28.1557C30.4458 27.9616 30.6386 27.8507 30.8453 27.8507C31.2723 27.8507 31.7269 28.2666 31.8371 28.7656C31.8646 28.8765 31.8922 29.0151 32.0162 29.0844C32.0988 29.126 32.209 29.1399 32.3468 29.1399C32.457 29.1399 32.5672 29.126 32.6774 29.1122C32.76 29.0983 32.8427 29.0983 32.8978 29.0983C33.0768 29.0983 33.2421 29.0706 33.4212 29.0567C33.5865 29.0429 33.7656 29.0151 33.9447 29.0151C34.0136 29.0151 34.0824 29.0151 34.1513 29.029C34.5508 29.0706 34.9365 29.2231 35.3084 29.3617C35.7492 29.5419 36.2176 29.7082 36.6997 29.7082C36.7824 29.7082 36.8512 29.7082 36.9339 29.6944C37.3747 29.6389 37.8017 29.4033 38.1599 28.9874C38.215 28.932 38.2563 28.8765 38.2976 28.8072C38.3803 28.6963 38.4492 28.5854 38.5594 28.53C38.766 28.4052 38.9864 28.3359 39.2068 28.3359C39.5236 28.3359 39.868 28.4607 40.1848 28.6963C40.5705 28.9874 40.8323 29.4171 40.9287 29.9161C41.0251 30.3874 40.9425 30.8726 40.6945 31.3162C40.419 31.8014 39.9782 32.4251 39.565 32.8826C39.441 33.0212 39.3308 33.0905 39.2068 33.1321C39.1655 33.1459 39.1242 33.146 39.0828 33.146C38.8349 33.146 38.5869 32.9519 38.3252 32.7578C38.2425 32.6885 38.1599 32.6331 38.0772 32.5776C37.4023 32.1063 36.7961 31.7459 36.2038 31.4964C35.5426 31.2192 34.8814 31.0528 34.2477 31.0112C34.1513 30.9974 34.0411 30.9974 33.9309 30.9974C33.4212 30.9974 32.8978 31.0805 32.3743 31.2469C32.2366 31.2885 32.085 31.3578 31.9335 31.4409C31.658 31.5796 31.3687 31.7043 31.0932 31.7043C31.0657 31.7043 31.0243 31.7043 30.9968 31.7043C30.7626 31.6766 30.5973 31.5934 30.5147 31.4825C30.3769 31.2746 30.4733 30.9142 30.5698 30.5677C30.6249 30.3181 30.6937 30.0548 30.68 29.8191ZM36.6033 11.6047C36.9477 11.5215 37.3058 11.4661 37.6364 11.4661C38.2012 11.4661 38.6971 11.5908 39.1379 11.8265C39.4685 12.0067 39.8405 12.2839 39.7578 12.5889C39.6614 12.9632 38.9175 13.2958 38.2012 13.2958C38.1599 13.2958 38.1186 13.2958 38.091 13.2958C37.8844 13.282 37.6778 13.2543 37.4711 13.2265C37.2094 13.185 36.9339 13.1434 36.6584 13.1434C36.6033 13.1434 36.5482 13.1434 36.4931 13.1434C36.0247 13.1711 35.5564 13.3097 35.0467 13.5592C34.5508 13.7949 34.11 14.0998 33.6141 14.4464C32.5534 14.7652 32.0713 15.9989 31.9335 16.3732C31.6442 17.2326 31.6167 18.2445 31.8371 19.3673C31.9473 19.9357 32.1126 20.504 32.2641 20.9614C32.3468 21.2109 32.4707 21.502 32.6085 21.7931C32.884 22.4031 33.187 23.0961 33.1319 23.609C33.0768 24.1774 32.8289 24.1774 32.7462 24.1774C32.5534 24.1774 32.2779 24.0387 31.9886 23.7892C31.7131 23.5536 31.5065 23.3041 31.3549 23.0407C31.0106 22.4585 30.8866 21.8486 30.9417 21.0169C30.9692 20.7119 31.0381 20.3931 31.1208 20.0881C31.1345 20.005 31.1621 19.9218 31.1759 19.8386C31.3687 19.0346 31.2723 18.2168 30.9141 17.496C30.8728 17.4128 30.8315 17.3435 30.7902 17.288C30.6937 17.1217 30.6249 17.0108 30.6524 16.789C30.7213 16.0128 31.3412 15.3613 31.906 14.7791L32.0024 14.682C32.6498 14.0028 33.3661 13.3929 34.11 12.8523C34.7574 12.4087 35.6115 11.8542 36.6033 11.6047ZM34.3855 10.7591C33.9171 10.5373 33.7243 10.2324 33.7932 9.84426C33.8896 9.30365 34.4957 9.08186 35.0329 8.88779C35.2395 8.81848 35.4324 8.74918 35.5977 8.65214C35.7492 8.56897 35.8732 8.4858 36.011 8.38877C36.0798 8.34718 36.1487 8.3056 36.2038 8.26401C36.3691 8.15312 36.5482 8.05609 36.741 8.02836C36.7686 8.02836 36.7961 8.02836 36.8237 8.02836C37.6502 8.02836 38.2012 9.19275 38.3941 9.69178C38.5731 10.1492 38.6145 10.4403 38.5043 10.5928C38.3803 10.7869 38.0359 10.8146 37.5951 10.8423C37.4023 10.8562 37.1956 10.87 36.9752 10.8978C36.8926 10.9116 36.8099 10.9255 36.741 10.9393C36.4242 10.9809 36.1074 11.0364 35.7906 11.0364C35.7492 11.0364 35.7217 11.0364 35.6804 11.0364C35.3222 11.0364 34.785 10.9532 34.3855 10.7591ZM42.7057 18.9376C42.7884 19.5337 42.6644 19.9495 42.4853 20.0327C42.4577 20.0465 42.4302 20.0465 42.4027 20.0465C42.32 20.0465 42.1134 19.9911 41.8379 19.4921C41.7139 19.2703 41.5348 19.0485 41.3557 18.8406C41.1216 18.5495 40.8736 18.2584 40.7496 17.9257C40.5568 17.3712 40.7634 16.8861 40.9838 16.3732C41.0527 16.2068 41.1353 16.0266 41.1904 15.8464C41.9894 16.7059 42.5404 17.8287 42.7057 18.9376ZM41.7414 13.9751C41.7552 13.9612 41.769 13.9612 41.7965 13.9612C41.8654 13.9612 41.9756 13.9889 42.072 14.0305C42.1547 14.0582 42.2236 14.086 42.2787 14.086C42.4577 14.0998 42.5817 14.1414 42.6506 14.183C42.7608 14.2523 42.7195 14.3632 42.5266 14.7375C42.3613 14.6127 42.2098 14.5018 42.072 14.3771C42.0445 14.3632 42.0169 14.3355 41.9756 14.3078C41.9067 14.2662 41.7414 14.1414 41.7277 14.086C41.7277 14.0167 41.7414 13.9889 41.7414 13.9751ZM37.4574 18.6188C37.6364 18.7158 37.8017 18.8406 37.9257 18.993C38.215 19.3257 38.3803 19.7832 38.3803 20.2545C38.0635 20.4901 37.7329 20.7258 37.3885 20.9476C37.4711 20.6149 37.54 20.2822 37.5813 19.9495C37.6364 19.4366 37.5951 18.993 37.4574 18.6188ZM37.4023 22.6526C37.5951 22.5417 37.8017 22.4585 37.9946 22.3753C38.0635 22.3476 38.1461 22.306 38.215 22.2783C38.2425 22.2644 38.3114 22.2367 38.3803 22.1951C38.6145 22.0704 39.1242 21.8209 39.317 21.8209C39.3308 21.8209 39.3446 21.8209 39.3446 21.8209C39.3446 21.8347 39.3446 21.8624 39.3446 21.8902C39.3308 22.0011 39.3308 22.112 39.2757 22.209C39.2068 22.3337 39.0828 22.4031 38.9313 22.4862L38.6696 22.6248C38.4767 22.7357 38.2425 22.7912 38.0221 22.8466C37.9533 22.8605 37.8982 22.8744 37.8293 22.9021C37.788 22.9159 37.6915 22.9437 37.5813 22.9437C37.4987 22.9437 37.4023 22.9298 37.3472 22.8744C37.3058 22.8328 37.2921 22.805 37.2921 22.7773C37.2921 22.7496 37.3058 22.708 37.4023 22.6526ZM39.3308 19.1455C39.2619 19.3673 39.1242 19.6168 38.9864 19.6168C38.8762 19.6168 38.8349 19.5059 38.7798 19.3396C38.766 19.298 38.7522 19.2564 38.7384 19.2148C38.642 18.9792 38.518 18.7713 38.3527 18.6049C37.9808 18.1891 37.4574 17.9118 36.9063 17.8425C36.8926 17.5376 36.7686 17.2603 36.5482 17.0385C36.4655 16.9554 36.3691 16.8999 36.2865 16.8583C36.1212 16.7613 36.0385 16.7197 36.0661 16.5118C36.0936 16.3177 36.314 16.1791 36.4931 16.1652C36.5206 16.1652 36.5482 16.1652 36.5757 16.1652C37.0441 16.1652 37.4711 16.4563 37.8706 16.7474C38.2563 17.0247 38.642 17.3158 38.9589 17.6762C39.3032 18.0643 39.441 18.5356 39.3721 18.993C39.3583 19.0208 39.3446 19.0762 39.3308 19.1455ZM35.7906 20.0465C36.0523 20.3654 36.4518 20.4901 36.8788 20.5733C36.8237 20.8367 36.741 21.1139 36.6446 21.3773C36.5895 21.405 36.5344 21.4327 36.4793 21.4743C36.2589 21.5991 35.9972 21.7515 35.7906 21.7515C35.763 21.7515 35.7355 21.7515 35.6941 21.7377C35.46 21.6822 35.2809 21.5159 35.1707 21.3773C35.088 21.2802 35.0054 21.1694 34.9503 21.0446C34.8125 20.7812 34.8125 20.4208 34.9365 20.0881C35.0605 19.7693 35.2946 19.4921 35.5426 19.2564C35.5151 19.5337 35.5977 19.8109 35.7906 20.0465ZM36.8375 19.9634C36.7824 19.298 36.5069 18.6604 36.0661 18.1613C36.3002 18.1891 36.6171 18.2722 36.7686 18.5633C36.9614 18.9237 37.0441 19.298 37.0028 19.797C37.0028 19.8663 36.989 19.9218 36.9752 20.005C36.9339 19.9772 36.8788 19.9634 36.8375 19.9634ZM36.2451 17.593C36.1212 17.5653 36.011 17.5514 35.887 17.5514C35.8594 17.5514 35.8319 17.5514 35.8043 17.5514C35.5564 17.5653 35.3084 17.6485 35.0605 17.7455C34.8125 17.8425 34.5783 17.9257 34.3579 17.9257C34.3442 17.9257 34.3304 17.9257 34.3166 17.9257C34.4406 17.5237 35.0191 17.2603 35.5426 17.2603C35.7217 17.2603 35.8732 17.288 35.9834 17.3574C36.0936 17.3989 36.19 17.496 36.2451 17.593ZM34.1789 16.6781L34.11 16.7474C33.3661 17.5098 32.7876 18.2029 32.3881 19.1039C32.2366 18.2584 32.2366 17.5237 32.4019 16.8583C32.4845 16.4979 32.8564 15.3058 33.7656 15.0147C33.8758 14.987 33.9722 14.9593 34.0549 14.9593C34.1238 14.9593 34.2064 14.9731 34.2615 15.0008C34.5232 15.0979 34.6748 15.2365 34.7161 15.4444C34.8263 15.8187 34.5095 16.3454 34.1789 16.6781ZM32.8013 19.6723C32.8151 19.6307 32.8427 19.603 32.8564 19.603H32.8702C32.9115 19.6446 32.9529 19.8109 32.9804 19.9218C33.008 20.0188 33.0355 20.102 33.0631 20.1713C33.2559 20.5872 33.5314 20.9614 33.862 21.2664C34.3304 21.6961 34.8814 21.9872 35.4186 22.2783C35.6666 22.4169 35.9283 22.5555 36.1625 22.6941L36.2314 22.7357C36.4793 22.8882 36.7961 23.0823 36.8375 23.3595C36.8512 23.4981 36.8099 23.5536 36.6722 23.6506C36.562 23.7199 36.4655 23.8031 36.3691 23.8724C36.2589 23.9556 36.1487 24.0387 36.0385 24.1219C35.8319 24.2467 35.5839 24.316 35.3222 24.316C35.1569 24.316 34.9916 24.2883 34.8538 24.2328C34.3166 24.011 33.8483 23.4427 33.4626 22.5417C33.0631 21.6407 32.8564 20.8367 32.8289 20.0881C32.8289 20.0604 32.8289 20.0188 32.8289 19.9772C32.8289 19.9218 32.8151 19.8663 32.8151 19.8109C32.7876 19.7554 32.7876 19.7 32.8013 19.6723ZM34.9089 25.2863C34.9916 25.1754 35.1293 25.1338 35.2809 25.0922C35.3084 25.0784 35.336 25.0784 35.3635 25.0645C35.5839 24.9952 35.8043 24.912 36.0247 24.8011C36.3691 24.6348 36.6722 24.3991 36.9201 24.1912C37.4711 23.7476 37.967 23.415 38.5869 23.3041H38.6145C38.9175 23.2486 39.2206 23.1932 39.4961 23.0268C39.8129 22.8328 40.0195 22.5139 40.0609 22.1535C40.1022 21.8347 40.0471 21.4327 39.868 20.9614L39.8405 20.8783C39.7165 20.5456 39.6063 20.2129 39.6614 19.8802C39.8405 19.6584 39.9507 19.4228 40.0058 19.1871C40.0195 19.1178 40.0195 19.0208 40.0195 18.9237C40.0195 18.7574 40.0058 18.5495 40.116 18.5079C40.1297 18.5079 40.1435 18.494 40.1435 18.494C40.2262 18.494 40.4328 18.5772 40.8874 19.1178C41.3971 19.7416 41.7001 20.5178 41.9894 21.3218L42.0445 21.4743C42.1547 21.7931 42.2787 22.112 42.3062 22.4308C42.3338 22.708 42.2924 22.9437 42.1822 23.1516C42.0445 23.415 41.7965 23.5952 41.5486 23.7892C41.3557 23.9417 41.1491 24.0942 40.9976 24.3021C40.8736 24.4546 40.791 24.6209 40.7221 24.7734C40.667 24.8982 40.6119 25.0091 40.5292 25.12C40.3226 25.4388 39.868 25.522 39.4685 25.5913C39.4134 25.6051 39.3721 25.6051 39.317 25.619C38.7798 25.716 38.2288 25.7715 37.7191 25.8131C37.3747 25.8408 37.0579 25.8546 36.7686 25.8546C36.5757 25.8546 36.3967 25.8546 36.2176 25.8408C36.1487 25.8408 36.0798 25.8269 36.011 25.8269C35.639 25.7992 35.2395 25.7853 34.964 25.5635C34.9089 25.522 34.8814 25.4804 34.8676 25.4388C34.8538 25.4111 34.8676 25.3418 34.9089 25.2863ZM40.5981 15.7771C40.4603 16.1791 40.2813 16.5534 40.0884 16.9276C39.9782 17.1633 39.8542 17.3989 39.744 17.6346C39.7303 17.6623 39.7303 17.6762 39.7165 17.7039C39.7027 17.6762 39.6752 17.6346 39.6614 17.6069C39.3583 17.1356 38.9175 16.7752 38.4905 16.4563C37.8982 16.0128 37.3885 15.7078 36.6446 15.5553L36.5344 15.5276C36.0247 15.4306 35.5013 15.3197 35.4462 14.7375C35.4186 14.488 35.4875 14.28 35.6253 14.1137C35.8043 13.8919 36.1212 13.7533 36.4793 13.7394C36.5344 13.7394 36.5895 13.7394 36.6308 13.7394C36.8926 13.7394 37.1543 13.781 37.4023 13.8226C37.6089 13.8503 37.8293 13.8919 38.0497 13.8919C38.091 13.8919 38.1461 13.8919 38.1874 13.8919C38.4078 13.8919 38.6282 13.8642 38.8762 13.8087C38.9175 13.7949 38.9451 13.7949 38.9864 13.781C39.1379 13.7394 39.2895 13.6978 39.4272 13.6978C39.4685 13.6978 39.4961 13.6978 39.5374 13.7117C39.9093 13.7671 40.2124 14.1276 40.4052 14.3909C40.6945 14.7513 40.7634 15.2919 40.5981 15.7771ZM30.68 18.6881C30.7213 19.0346 30.6937 19.395 30.5973 19.7832C30.556 19.9495 30.5147 20.102 30.4596 20.2683C30.3907 20.5178 30.308 20.7812 30.2667 21.0446C30.1565 21.6268 30.2116 22.2229 30.4182 22.7219C30.432 22.7496 30.4458 22.7773 30.4458 22.8189C30.4733 22.8882 30.5009 22.9714 30.556 23.0407C30.6111 23.11 30.6524 23.1793 30.7075 23.2625C30.859 23.4981 31.0106 23.7338 31.231 23.9001C31.3549 23.9972 31.4789 24.1081 31.5891 24.2051C31.7407 24.3298 31.8922 24.4685 32.0437 24.5932C32.333 24.8011 32.6223 25.0229 32.9529 25.2447C33.187 25.4111 33.435 25.5913 33.6967 25.7992C34.3028 26.2566 34.9227 26.7418 35.5702 26.9636C35.8457 27.0606 36.1487 27.1022 36.4655 27.1022C36.7961 27.1022 37.1405 27.0606 37.54 26.9636C37.7053 26.922 37.8568 26.9081 37.9808 26.9081C38.2701 26.9081 38.4354 27.019 38.4492 27.2408C38.5043 27.8646 37.6089 29.0013 36.9477 29.1399C36.8512 29.1538 36.7686 29.1676 36.6722 29.1676C36.3278 29.1676 35.9421 29.0429 35.5702 28.8072C35.4462 28.7379 35.3222 28.6409 35.1982 28.53C35.088 28.4468 34.964 28.3498 34.8401 28.2666C34.6472 28.128 34.4819 28.0587 34.3304 28.0309C34.2891 28.0171 34.2477 28.0171 34.2064 28.0171C33.9447 28.0171 33.683 28.1696 33.4212 28.3082C33.187 28.4468 32.9529 28.5716 32.76 28.5716C32.6774 28.5716 32.6223 28.5577 32.5534 28.5161C32.4294 28.4468 32.2779 28.1141 32.1677 27.8785C32.0988 27.726 32.0299 27.5735 31.9611 27.4903C31.7958 27.2547 31.6304 27.0329 31.4651 26.8111L31.2861 26.5755C31.0519 26.2566 30.8039 25.9101 30.5973 25.5497C30.3907 25.1754 30.2529 24.7873 30.1703 24.3576C30.129 24.1358 30.1014 23.914 30.0601 23.6922C30.0188 23.4288 29.9912 23.1655 29.9223 22.9021C29.8397 22.4862 29.6744 22.0704 29.4264 21.5991C29.3713 21.502 29.3162 21.405 29.2611 21.308C28.9443 20.7119 28.6137 20.102 28.6412 19.4366C28.6412 19.4366 28.6412 19.395 28.655 19.3812C28.655 19.3673 28.655 19.3673 28.655 19.3535C28.655 19.3535 28.655 19.3119 28.655 19.298C28.7377 18.6326 29.1234 17.8148 29.6744 17.6207C29.7295 17.593 29.7983 17.593 29.8672 17.593C29.9361 17.593 30.0325 17.6069 30.1152 17.6623C30.1565 17.69 30.1978 17.7316 30.2392 17.7871C30.4458 18.0504 30.6249 18.3138 30.68 18.6881ZM28.6688 21.4189L28.7652 21.5852C28.9305 21.8902 29.1096 22.2228 29.2336 22.5555C29.3713 22.9575 29.4402 23.4011 29.4953 23.817L29.5228 24.011C29.5917 24.4407 29.6744 24.9398 29.8948 25.4388C29.9499 25.5635 30.0463 25.7022 30.1427 25.8546C30.3769 26.2012 30.6662 26.6448 30.4871 26.8804C30.4182 26.9636 30.3218 27.019 30.1978 27.019C30.0325 27.019 29.8397 26.9497 29.6606 26.8804C29.5917 26.8527 29.5366 26.8388 29.4815 26.8111L29.4402 26.7972C29.0683 26.6725 28.5999 26.52 28.3106 26.2705C28.2693 26.2289 28.2142 26.1873 28.1729 26.1457C27.3739 25.3972 26.9744 24.5516 27.0158 23.6368C27.0295 23.1793 27.1811 22.708 27.4703 22.1535C27.4979 22.0981 27.5254 22.0288 27.5668 21.9595C27.7183 21.6268 27.98 21.0723 28.2831 21.0723H28.2969C28.4622 21.0585 28.5448 21.1832 28.6688 21.4189ZM40.8047 27.6012C40.5981 27.6012 40.3777 27.6012 40.1435 27.5874C40.1022 27.5874 40.0609 27.5874 40.0195 27.5874C39.8129 27.5874 39.6063 27.5735 39.4961 27.421C39.3859 27.2547 39.4961 27.0606 39.6201 26.8804C39.8405 26.5477 40.2262 26.3953 40.5981 26.2428C40.9838 26.0903 41.3833 25.924 41.5761 25.5635C41.6312 25.4527 41.6588 25.3418 41.6863 25.2447C41.7001 25.1893 41.7139 25.1338 41.7277 25.0784C41.8516 24.6625 42.2236 24.3992 42.623 24.1081C43.0088 23.8308 43.3945 23.5536 43.5735 23.0961C43.7251 22.7219 43.67 22.306 43.6286 21.9456V21.9179C43.5184 20.9891 43.3394 19.4366 43.6149 18.5772C43.7388 18.2029 43.8904 18.2029 43.9455 18.2029C44.221 18.2029 44.6205 18.6049 44.9373 18.9237C45.1164 19.1039 45.2817 19.2703 45.4194 19.3673C45.7225 19.5752 46.0531 19.7416 46.4112 19.8663C46.6867 19.9634 46.9347 20.199 46.8383 20.5178C46.7832 20.7396 46.6867 20.9614 46.6041 21.1832C46.5214 21.3911 46.4388 21.6129 46.3699 21.8347C46.2735 22.1674 46.1908 22.5139 46.1082 22.8466C45.9566 23.4427 45.8051 24.0665 45.5847 24.6487C45.2679 25.5081 44.8409 26.1457 44.2761 26.5893C43.7113 27.0468 42.9812 27.3379 42.0858 27.4903C41.7001 27.5735 41.2869 27.6012 40.8047 27.6012ZM45.7362 18.896C45.4607 18.702 45.2128 18.4663 44.9786 18.2306C44.7031 17.9673 44.4276 17.69 44.097 17.4682C43.9041 17.3435 43.6837 17.2326 43.4358 17.2187C43.2567 17.2049 43.0914 17.1494 42.9123 17.0108C42.6644 16.8306 42.5542 16.6643 42.3889 16.4148C42.1822 16.0821 41.9894 15.7771 41.9343 15.3474C41.9343 15.3474 41.9343 15.3335 41.9481 15.3197C41.9894 15.3058 42.0307 15.2919 42.072 15.2919C42.2373 15.2919 42.4302 15.389 42.5817 15.4721L42.6506 15.4999C42.7746 15.5692 42.9123 15.6385 43.0363 15.7078C43.1878 15.8048 43.3531 15.9019 43.5322 15.9712C43.9592 16.1652 44.3863 16.3177 44.8271 16.4148C44.9097 16.4286 45.0062 16.4563 45.0888 16.4702C45.3505 16.5256 45.626 16.5672 45.8189 16.7336C45.8327 16.7474 45.8464 16.7613 45.8602 16.7613C45.9429 16.8445 46.0117 16.9554 46.0806 17.0663C46.1219 17.1356 46.1633 17.2049 46.2046 17.2742C46.3561 17.4821 46.549 17.6762 46.7418 17.8425L46.7694 17.8702C47.0036 18.1059 47.1551 18.2861 47.2515 18.494C47.3342 18.6742 47.3893 18.8406 47.4168 18.9792C47.4306 19.1178 47.3893 19.1871 47.2515 19.3119C47.1826 19.3812 47.0862 19.4089 46.976 19.4089C46.673 19.4228 46.2322 19.2426 45.7362 18.896ZM32.6085 8.00064L32.636 7.94519C32.8427 7.5432 33.1457 7.21051 33.5452 6.93328C33.7381 6.79466 33.9722 6.64218 34.2064 6.51742C34.3166 6.46198 34.413 6.42039 34.5095 6.40653C34.5508 6.40653 34.5783 6.39267 34.6197 6.39267C34.7023 6.39267 34.785 6.40653 34.8538 6.42039C35.0191 6.44812 35.1982 6.47584 35.3773 6.47584C35.4737 6.47584 35.5564 6.47584 35.639 6.46198C35.8319 6.43425 36.0247 6.37881 36.2727 6.26791C36.4242 6.1986 36.5757 6.12929 36.7273 6.05999C36.9614 5.94909 37.1956 5.82433 37.4436 5.75502C37.5951 5.71344 37.7466 5.68571 37.8844 5.68571C38.1048 5.68571 38.3114 5.74116 38.5043 5.8382C38.8624 6.03226 39.1517 6.32336 39.441 6.61446L39.4685 6.64218C39.7716 6.94714 40.1435 7.30755 40.5981 7.61251C41.0802 7.94519 41.5761 8.20857 42.1409 8.49966C42.3062 8.58283 42.4578 8.67987 42.6093 8.7769C42.8297 8.91552 43.0639 9.05413 43.298 9.15117C43.4358 9.20661 43.5873 9.2482 43.7251 9.28978C44.1521 9.41454 44.524 9.52544 44.6893 9.95515C44.7858 10.1908 44.8684 10.4542 44.9373 10.7453C45.1301 11.5493 44.9648 12.5473 44.4552 13.8087C44.2899 14.2107 43.9455 14.4741 43.7251 14.4741C43.6562 14.4741 43.6149 14.4464 43.5873 14.4048C43.5047 14.2939 43.5047 14.0721 43.6011 13.7671C43.6837 13.4899 43.7113 13.1988 43.7113 12.8939C43.7113 12.7552 43.6837 12.575 43.5873 12.4364C43.422 12.2146 43.1465 12.1869 42.9261 12.1869C42.8435 12.1869 42.7746 12.1869 42.6782 12.2008C42.6093 12.2008 42.5404 12.2008 42.4853 12.2008C41.9067 12.2008 41.3557 12.0621 40.9149 11.8126C40.2262 11.4245 39.8267 10.6898 39.441 9.98287C39.3583 9.83039 39.2757 9.67792 39.193 9.5393C38.89 9.01255 38.6007 8.62442 38.2976 8.27787C37.967 7.91747 37.5262 7.50161 36.9752 7.44617C36.9339 7.44617 36.8926 7.4323 36.8375 7.4323C36.4104 7.4323 36.0661 7.66796 35.7217 7.88975C35.6804 7.91747 35.639 7.94519 35.5839 7.97291C35.1431 8.25015 34.6472 8.41649 34.2064 8.55511C34.0962 8.5967 33.9309 8.666 33.7518 8.74917C33.4074 8.91552 32.9666 9.10958 32.6911 9.10958C32.6223 9.10958 32.5672 9.09572 32.5258 9.068C32.4983 9.05414 32.4707 9.02641 32.457 8.99869C32.2228 8.76304 32.457 8.29174 32.6085 8.00064ZM32.5947 11.175C32.7325 11.1611 32.8702 11.1611 32.9942 11.1611C33.4901 11.1611 33.862 11.2582 34.0411 11.4522C34.1375 11.5493 34.1651 11.6602 34.1651 11.8126C34.1513 12.1453 33.7794 12.4087 33.4763 12.6166C33.3937 12.6721 33.3248 12.7275 33.2697 12.7691C32.8013 13.1295 32.3605 13.5176 31.9335 13.9335C31.6442 14.2107 31.3825 14.5434 31.1208 14.8484C30.7626 15.2919 30.3769 15.7494 29.9361 16.0959C29.7157 16.2623 29.4815 16.4009 29.2473 16.5534C28.7377 16.8583 28.2004 17.1772 27.8836 17.7455C27.7183 18.0366 27.6356 18.3831 27.553 18.702C27.4841 19.0069 27.4015 19.2841 27.2775 19.5475C27.2086 19.7 27.1122 19.8248 27.002 19.9634C26.9193 20.0743 26.8367 20.1852 26.7678 20.3099C26.3132 21.0862 26.3546 21.9595 26.4097 22.7912L26.4234 22.9714C26.4234 23.013 26.4372 23.11 26.451 23.2209C26.5474 24.0387 26.5474 24.4962 26.4785 24.5655C26.3821 24.5655 26.1479 24.3714 26.0653 24.2744C25.8862 24.0665 25.7347 23.7338 25.652 23.3595C25.5694 22.9714 25.6107 22.5971 25.6796 22.1951C25.7484 21.7515 25.8311 21.308 25.7209 20.8505C25.6658 20.6287 25.5694 20.4208 25.4867 20.2268C25.4178 20.0743 25.349 19.9218 25.2939 19.7693C25.1837 19.4228 25.2663 19.0901 25.4316 18.6881C25.6107 18.2445 25.7622 17.8841 25.8586 17.4682C25.9275 17.1772 25.9413 16.8445 25.9688 16.5256C25.9964 16.0543 26.0239 15.5692 26.203 15.1672C26.5199 14.4602 27.0709 14.2107 27.677 13.9474C28.104 13.7671 28.5448 13.5731 28.9167 13.1988C29.0407 13.0741 29.1509 12.9354 29.2611 12.8107C29.3989 12.6582 29.5228 12.5057 29.6744 12.3671C30.0463 12.0344 30.5284 11.8542 30.9968 11.674L31.906 11.3275C32.0024 11.272 32.2641 11.2166 32.5947 11.175ZM26.3683 8.06995L26.4234 8.02836C26.6714 7.84816 26.9331 7.65409 27.2224 7.52934C27.4428 7.4323 27.6907 7.37686 27.9249 7.37686C28.0489 7.37686 28.1729 7.39072 28.2693 7.4323C28.4208 7.48775 28.5035 7.59865 28.5999 7.7234C28.6826 7.84816 28.7928 7.98678 28.9718 8.06995C29.0545 8.11153 29.1234 8.12539 29.206 8.12539C29.6055 8.12539 29.7983 7.64023 29.9637 7.21051C30.0188 7.05803 30.0739 6.90555 30.1427 6.80852C30.9004 7.68182 31.9748 9.19275 31.4789 10.1908C31.231 10.6898 30.68 10.8839 30.1427 11.078C29.8397 11.1889 29.5366 11.2997 29.2887 11.4522C28.9443 11.674 28.655 11.979 28.3933 12.2701C28.2969 12.3671 28.2142 12.4641 28.1178 12.5612C27.4428 13.2543 26.7127 13.6147 25.8311 13.684C25.7209 13.6978 25.5969 13.7117 25.4729 13.7256C25.2112 13.7533 24.9082 13.7949 24.6327 13.7949C24.1367 13.7949 23.7924 13.684 23.5582 13.4622C22.7868 12.7552 23.875 10.8007 24.2332 10.2185C24.5638 9.66405 25.0184 9.16503 25.6107 8.67987C25.8173 8.47194 26.0928 8.26401 26.3683 8.06995ZM17.6073 12.8939C17.6762 12.4919 17.69 12.4226 17.3042 12.2701C16.9323 12.1315 16.5879 11.9374 16.2849 11.7017C16.092 11.5631 15.6788 11.3413 15.6512 11.0641C15.6099 10.7037 16.2436 10.8007 16.3813 10.5512C16.5328 10.2601 15.9818 9.96901 15.8303 9.81653C15.4721 9.45613 15.1966 9.05413 14.866 8.67987C14.7283 8.52739 14.4941 8.34718 14.439 8.13926C14.3288 7.77885 14.7007 7.84816 14.9211 7.77885C15.3344 7.65409 14.7972 7.00259 14.6594 6.7808C14.4528 6.44812 14.2324 6.1293 14.0533 5.79661C13.9844 5.67186 13.9293 5.56096 13.8605 5.4362C13.8329 5.38076 13.7365 5.256 13.764 5.17283C13.8054 5.00649 14.136 5.17283 14.2186 5.21441C14.3839 5.29759 14.6181 5.33917 14.7007 5.11738C14.7972 4.85401 14.6181 4.57677 14.5079 4.35498C14.3564 4.06389 14.2048 3.75893 14.0809 3.45397C13.9569 3.14901 13.8467 2.83018 13.7916 2.51136C13.7503 2.30344 13.7089 1.98461 13.8742 1.80441C14.0533 1.61034 14.3013 1.76283 14.5079 1.83213C15.1278 2.05392 15.7477 2.27571 16.3675 2.48364C16.6981 2.59454 16.767 2.0262 17.0425 1.95689C17.2905 1.90144 17.5522 2.23413 17.7175 2.38661C17.9655 2.62226 18.1445 2.88563 18.3236 3.16287C18.5578 3.53714 18.6542 3.31535 18.9435 3.16287C19.1088 3.06584 19.4119 3.16287 19.5496 3.2599C19.7838 3.4401 19.8802 3.82824 20.1557 3.93913C20.6378 4.14706 20.4312 3.45397 20.748 3.34307C21.1475 3.20445 21.6572 4.09161 21.8363 4.34112C22.1118 4.72925 22.3735 5.14511 22.5939 5.57482C22.7041 5.78275 22.8006 6.00454 22.897 6.22633C22.9245 6.3095 22.9383 6.44811 22.9934 6.51742C23.2 6.80852 23.6408 6.32336 23.8337 6.22633C24.123 6.05999 24.5362 6.1986 24.7153 6.46198C24.8944 6.72535 25.0459 7.01645 25.2112 7.29368C25.3352 7.50161 25.4592 7.70954 25.5831 7.91747C25.5556 7.94519 25.5143 7.95905 25.4867 7.98678C25.0735 8.3056 24.7429 8.5967 24.4536 8.90165C24.4398 8.83235 24.426 8.7769 24.426 8.76304C24.3709 8.49966 24.2883 8.23629 24.1781 8.00064C24.123 7.88974 24.123 7.80657 23.999 7.84816C23.9163 7.87588 23.8888 7.98678 23.8888 8.05608C23.9163 8.52739 23.9301 9.01255 23.9577 9.48385C23.9163 9.5393 23.875 9.59474 23.8475 9.65019C23.6546 9.94129 23.4755 10.2601 23.2689 10.6482C23.2414 10.7176 23.2 10.7869 23.1725 10.8423C23.1587 10.8284 23.1449 10.8146 23.1312 10.8007C22.9659 10.6205 22.8143 10.4403 22.6628 10.2463C22.525 10.0799 22.2909 9.88584 22.2082 9.66405C21.9465 8.98483 22.0567 8.26401 22.0291 7.57092C22.0016 6.7808 21.7674 6.00454 21.3955 5.31145C21.3679 5.256 21.3266 5.18669 21.2577 5.15897C21.1062 5.08966 20.996 5.29759 21.0511 5.42234C21.1889 5.75502 21.9878 8.43036 21.2026 8.37491C20.9547 8.36105 20.6378 7.80657 20.5001 7.64023C20.2797 7.37686 20.1144 7.12734 19.9766 6.79466C19.8389 6.47584 19.9215 6.15702 19.8664 5.82433C19.7976 5.39462 19.6874 4.99263 19.4532 4.61836C19.4256 4.57677 19.3981 4.53519 19.3568 4.50746C19.2052 4.42429 19.1364 4.61836 19.1777 4.72925C19.3154 5.06193 19.5634 5.74116 19.3154 6.07385C19.1501 6.3095 18.7369 5.74116 18.6129 5.63027C18.3374 5.36689 18.0481 5.11738 17.8966 4.75698C17.8277 4.59063 17.8002 4.36884 17.7588 4.18864C17.69 3.93913 17.6073 3.68962 17.4696 3.48169C17.318 3.2599 17.0425 3.28762 17.1114 3.60644C17.2078 4.00844 17.318 4.46588 16.7257 4.2025C16.3262 4.00844 15.9543 3.71734 15.4997 3.64803C15.4308 3.63417 15.1553 3.57872 15.114 3.64803C15.0451 3.7312 15.1691 3.86982 15.238 3.91141C16.1885 4.35498 17.0701 4.9649 17.869 5.65799C18.0343 5.79661 18.2823 5.93523 18.2134 6.17088C18.1721 6.32336 18.0481 6.37881 17.9104 6.39267C17.6073 6.43425 17.3043 6.32336 17.015 6.25405C16.4777 6.14316 15.9543 5.93523 15.4584 5.67186C15.3895 5.63027 15.1829 5.61641 15.1415 5.7273C15.114 5.82434 15.3206 5.94909 15.3895 6.00454C15.9267 6.44812 16.4502 6.68377 17.1389 6.80852C17.4833 6.86397 17.8139 6.90556 18.1583 6.90556C18.5027 6.90556 19.0537 6.86397 19.343 7.08576C19.7425 7.40458 20.0868 7.91747 20.4174 8.3056C20.5965 8.52739 20.9409 8.94324 20.4174 8.94324C19.7011 8.94324 18.971 8.87393 18.2823 8.70759C17.7451 8.58283 17.0425 8.49966 16.6155 8.11153C16.5053 8.00064 16.2711 8.04222 16.3124 8.23629C16.34 8.31946 16.4089 8.38877 16.4777 8.43035C16.8772 8.70759 17.3318 8.91552 17.8002 9.04027C17.9517 9.08186 18.117 9.10958 18.2685 9.13731C18.8608 9.2482 19.467 9.34523 20.0593 9.4284C20.5827 9.49771 21.4093 9.44226 21.7536 9.91356C21.974 10.2185 22.222 10.4958 22.4562 10.773C22.5113 10.8284 22.7592 11.078 22.9521 11.2859C22.897 11.4245 22.8557 11.5631 22.8143 11.7017C22.773 11.8265 22.7592 11.9651 22.7455 12.1037C22.098 12.1037 21.4781 12.1176 20.8307 12.0483C20.1006 11.979 19.3981 11.7295 18.7369 11.4245C18.4338 11.2859 18.0757 11.3413 18.4751 11.6463C18.8746 11.9513 19.3292 12.1592 19.8113 12.2839C20.1833 12.3948 20.5827 12.4503 20.9685 12.5057C21.0511 12.5196 22.1256 12.575 22.7179 12.6028C22.7041 13.0602 22.6766 13.4899 22.3597 13.781C22.0842 14.0444 21.6848 14.1414 21.2853 14.2246C21.1338 14.2523 20.996 14.2939 20.8583 14.3355C20.7067 14.3771 20.5552 14.4325 20.4174 14.488C19.5909 14.3632 18.8057 14.0721 18.1032 13.6285C17.7588 13.4761 17.5247 13.3513 17.6073 12.8939ZM17.993 18.2584C17.8002 17.8287 17.7175 17.3574 17.7451 16.8722C17.7726 16.4009 17.9379 15.9712 18.117 15.5276L18.1308 15.486C18.241 15.2226 18.3374 14.9454 18.4338 14.6682C18.6818 15.1256 19.0124 15.5553 19.3292 15.9573C19.3292 15.9712 19.343 15.9712 19.343 15.985C19.3154 16.1791 19.3154 16.387 19.3154 16.5672C19.3154 16.9969 19.3154 17.3989 19.2879 17.7871C19.1501 17.7593 18.9848 17.8841 19.0399 18.0643C19.095 18.2722 19.1639 18.4663 19.2328 18.6604C19.2052 18.9099 19.1777 19.1594 19.1364 19.4089C18.6955 19.1871 18.241 18.8267 17.993 18.2584ZM15.3482 24.1635C15.2793 23.9833 15.3482 23.7615 15.4308 23.5674C15.4721 23.4843 15.5135 23.415 15.541 23.3457C15.7063 23.0407 15.8579 22.7496 16.1196 22.5278C16.5191 22.1813 17.0287 21.9872 17.5798 21.9872C17.8002 21.9872 18.0206 22.0149 18.241 22.0704C18.2547 22.0704 18.2685 22.0842 18.2823 22.0842C18.117 22.4031 17.9379 22.6942 17.7313 22.9852C17.5522 23.2209 17.3594 23.4565 17.1527 23.6645C16.9048 23.9279 16.9048 24.011 16.8634 24.316C16.8359 24.5794 16.7119 24.5655 16.4502 24.5655C16.1196 24.5794 15.4997 24.5516 15.3482 24.1635ZM22.7179 33.0905C22.4837 33.3262 22.2633 33.5757 22.0016 33.7836C21.7812 33.9777 21.4644 34.0192 21.2026 33.8529C20.9271 33.6727 20.8032 33.2568 20.4174 33.4232C20.1144 33.5618 19.9215 33.8945 19.7011 34.1163C19.3705 34.449 19.0399 34.7955 18.6818 35.1005C18.3649 35.3638 18.0619 35.6411 17.6762 35.7936C17.2629 35.9599 17.2078 35.5302 17.0701 35.2114C17.0563 35.1836 17.0425 35.1698 17.0287 35.1559C17.015 35.1559 17.0012 35.1559 16.9874 35.1559C16.3951 35.2114 15.9681 35.9183 15.4033 35.3084C15.3895 35.2945 15.3757 35.2807 15.3619 35.2807C15.3482 35.2807 15.3344 35.2807 15.3068 35.2807C14.9625 35.4054 14.6594 35.6688 14.3426 35.849C14.0809 35.9876 13.888 36.0985 13.5712 36.0569C13.4059 36.0292 13.2406 35.9599 13.1304 35.8213C13.0753 35.7381 13.0339 35.5163 12.8962 35.5163C12.2901 35.5718 11.6702 35.6133 11.0641 35.6688C10.7335 35.6965 10.1136 35.8767 10.2238 35.3361C10.334 34.7955 10.761 34.1994 11.0916 33.7836C11.2845 33.5479 11.6702 33.2568 11.7942 32.9796C11.9182 32.7024 11.436 32.5499 11.4222 32.2588C11.4085 31.9677 11.6977 31.538 11.9044 31.3439C12.235 31.0528 12.5794 30.8033 12.8411 30.4429C12.8549 30.4152 12.8824 30.3874 12.8824 30.3597C12.8962 30.2904 12.8411 30.2211 12.786 30.1795C12.6207 30.0409 12.4554 29.93 12.5518 29.6805C12.5931 29.5557 12.7033 29.4587 12.7998 29.3617C13.2957 28.8904 13.888 28.5161 14.4528 28.1418C14.6181 28.0309 15.0451 27.8923 14.866 27.6428C14.7834 27.5181 14.6043 27.5181 14.5492 27.3656C14.5079 27.2131 14.6319 27.019 14.7421 26.922C15.1553 26.5339 15.7339 26.3814 16.2573 26.2982C16.3951 26.2705 16.6293 26.2705 16.6844 26.1042C16.7532 25.9101 16.5604 25.716 16.6844 25.522C16.7395 25.4249 16.8359 25.3556 16.9323 25.3002C17.1114 25.2031 17.2905 25.12 17.4971 25.0645C17.8002 24.9813 18.1032 24.8705 18.42 24.8289C18.6818 24.7873 18.9435 24.8011 19.2052 24.7457C19.343 24.8011 19.4807 24.8427 19.6185 24.912C19.5496 24.9952 19.4945 25.0784 19.4532 25.1754V25.1893C19.1639 25.5497 18.8333 26.1735 18.8057 26.3537C18.792 26.4923 18.8057 26.6032 18.8471 26.6863C18.668 26.6863 18.4751 26.6863 18.2961 26.7141C17.9517 26.7557 17.6624 26.9081 17.4145 27.1715C17.3869 27.1992 17.3731 27.227 17.3731 27.2685C17.3869 27.324 17.442 27.3379 17.4971 27.3379C17.8966 27.3517 18.2961 27.227 18.6955 27.2131C19.1777 27.1992 19.6598 27.2685 20.1282 27.3933C20.1695 27.4072 20.197 27.4072 20.2384 27.421C20.4312 27.5458 20.5965 27.6983 20.7343 27.8507C20.9685 28.1141 21.12 28.4191 21.2164 28.7379C20.8169 29.0151 20.4312 29.2924 20.0455 29.5696C19.5496 29.93 18.8333 29.7359 18.2685 29.6666C17.7588 29.6112 17.2491 29.5557 16.7257 29.5003C16.092 29.431 15.4446 29.2924 14.7972 29.4171C14.6456 29.4448 13.9156 29.6389 14.2599 29.833C14.5492 29.9855 15.0176 29.8053 15.3344 29.8468C15.8303 29.9023 16.34 29.9716 16.8497 30.027C17.5798 30.1102 18.3098 30.1934 19.0399 30.2766C18.5027 30.6647 17.9517 31.0528 17.4007 31.4271C17.1803 31.5796 16.891 31.8568 16.6155 31.8845C16.3538 31.8984 16.1058 31.732 15.8716 31.6766C15.5135 31.5796 15.1553 31.5103 14.7972 31.4825C14.3288 31.441 13.8742 31.4409 13.4059 31.4964C13.1855 31.5241 12.9513 31.538 12.7447 31.6212C12.6345 31.6627 12.4003 31.8152 12.6069 31.94C12.6482 31.9677 12.7033 31.9677 12.7584 31.9816C13.3094 32.037 13.8742 31.8707 14.3977 31.9538C14.6594 31.9954 14.9349 32.0093 15.2104 32.0647C15.3619 32.0924 15.5135 32.1202 15.665 32.1618C15.7201 32.1756 16.0232 32.3142 16.0645 32.2865C15.9405 32.3558 15.8165 32.4251 15.6926 32.4944C15.0176 32.8549 14.3288 33.1875 13.5987 33.4232C13.2268 33.5479 12.8549 33.6588 12.4692 33.742C12.3314 33.7697 12.1523 33.7697 12.0559 33.8806C11.9457 34.0331 12.0559 34.144 12.2074 34.1579C12.5656 34.1717 12.9237 34.1163 13.2681 34.047C13.4472 34.0054 13.6125 33.9638 13.7916 33.9084C13.9018 33.8668 14.1222 33.742 14.1911 33.9084C14.2462 34.0608 14.0395 34.3103 13.9707 34.4212C13.888 34.5599 13.7365 35.0312 14.0533 34.7955C14.3288 34.5876 14.5354 34.3103 14.7145 34.0192C14.9349 33.6588 15.0451 33.3955 15.4308 33.2153C15.6788 33.1044 15.913 32.9796 16.1471 32.841C16.3124 32.744 16.5879 32.5776 16.643 32.8549C16.7119 33.1459 16.4915 33.645 16.3951 33.9222C16.3813 33.9777 16.3538 34.0331 16.3538 34.0886C16.34 34.4767 16.6844 34.144 16.767 34.0192C16.9185 33.7697 17.0287 33.5064 17.1114 33.2291C17.2216 32.8687 17.2078 32.4667 17.4007 32.1479C17.5798 31.8429 18.0343 31.6489 18.3098 31.4548C18.5027 31.3162 18.6955 31.1776 18.8884 31.0528C19.4119 30.6785 19.219 31.538 19.1501 31.7875C18.9573 32.5083 18.7369 33.1737 18.3649 33.8252C18.3236 33.9083 18.1721 34.144 18.2685 34.241C18.3512 34.3242 18.5302 34.1856 18.5716 34.1163C18.9848 33.5618 19.3017 32.9519 19.5221 32.3004C19.6323 31.9816 19.7149 31.635 19.7838 31.3023C19.8389 31.0251 19.8527 30.7479 19.9215 30.4845C19.9215 30.4845 19.9215 30.4845 19.9215 30.4706C19.9904 30.2627 20.0868 30.1795 20.2659 30.0548C20.6103 29.8053 20.9547 29.5696 21.2991 29.3201C21.3404 29.6528 21.3404 29.9716 21.3128 30.2488C21.2715 30.7894 21.1475 31.3301 21.0236 31.8568L21.0098 31.8984C20.9822 32.0231 21.0373 32.1618 21.1475 32.2311C21.6434 32.5222 22.1807 32.7717 22.7455 32.9519C22.8143 33.0073 22.773 33.0489 22.7179 33.0905ZM25.3765 32.7578C24.674 32.7578 23.9852 32.6608 23.3102 32.4806C22.0291 32.1202 22.0291 31.233 22.0291 30.2072C22.0291 29.7775 22.0291 29.334 21.9327 28.9042C21.8225 28.3913 21.6159 27.9478 21.3128 27.5596C21.0511 27.2408 20.7067 26.9497 20.2935 26.7418C20.018 26.6032 19.8664 26.4368 19.8527 26.2566C19.8113 25.9378 20.1557 25.5635 20.4725 25.2724C20.4863 25.2724 20.5001 25.2586 20.5276 25.2586C20.6241 25.2309 20.7343 25.217 20.8445 25.217C20.9822 25.217 21.12 25.2309 21.2853 25.2724C21.3128 25.2724 21.3266 25.2863 21.3542 25.2863C21.4919 25.2863 21.6159 25.1893 21.6434 25.0507C21.671 24.9259 21.6159 24.8011 21.5057 24.7457C21.2991 24.6348 21.0098 24.5794 20.7343 24.5794C20.6103 24.5794 20.4863 24.5932 20.3761 24.6209C19.9353 24.3714 19.4394 24.1912 18.8608 24.0526L18.7506 24.0249C18.42 23.9417 18.2547 23.914 18.241 23.5674C18.2272 23.1654 18.4889 22.7635 18.7506 22.3753C18.9159 22.1397 19.0675 21.904 19.1501 21.6822C19.4807 20.8644 19.7011 19.9495 19.8251 18.9376C19.8802 18.4247 19.9215 17.8841 19.9353 17.2742C19.9353 17.1494 19.9353 17.0247 19.9353 16.8861C19.9353 16.5534 19.9215 16.2068 20.0042 15.888C20.0593 15.6801 20.1282 15.5137 20.2384 15.4028C20.3486 15.2781 20.5139 15.1949 20.7343 15.1117C21.2577 14.9177 21.795 14.7929 22.2495 14.682C22.7317 14.5711 23.2414 14.488 23.7373 14.4325C23.8612 14.4187 23.9577 14.4187 24.0403 14.4187C24.3709 14.4187 24.55 14.5157 24.9495 14.7652C25.1148 14.8622 25.2112 15.0008 25.2525 15.1949C25.4041 15.9157 24.6878 17.0524 24.4674 17.3989C24.0128 18.0782 23.3929 19.0208 23.6408 19.9634C23.6959 20.1713 23.7924 20.3654 23.8888 20.5594C24.0128 20.7951 24.123 21.0307 24.1505 21.2802C24.1918 21.6545 24.0541 22.0149 23.9026 22.3892C23.7786 22.708 23.6408 23.0268 23.6271 23.3734C23.5995 23.8863 23.8337 24.4269 24.2745 24.8982C24.5913 25.2447 24.9908 25.5081 25.3627 25.7576C25.4316 25.7992 25.5005 25.8546 25.5694 25.8962C26.9744 26.8666 28.3795 28.0032 29.1509 29.7359C29.1922 29.833 29.2473 29.93 29.2887 30.0409C29.4815 30.429 29.6744 30.831 29.5504 31.2192C29.3989 31.6766 29.0132 31.9123 28.655 32.0786C28.0489 32.3558 27.3877 32.5638 26.7127 32.6746C26.2306 32.7162 25.8035 32.7578 25.3765 32.7578ZM41.6312 36.154C41.4797 36.6391 41.1078 37.2075 40.5017 37.3599C40.3915 37.3877 40.2813 37.4015 40.1573 37.4015C39.8956 37.4015 39.6338 37.3461 39.3859 37.2906C39.0139 37.2075 38.5731 37.1104 38.1323 37.055C37.3196 36.9441 36.438 36.9857 35.6528 37.0827C35.4049 37.1104 35.1569 37.1381 34.9227 37.1381C34.413 37.1381 34.0411 37.0134 33.7518 36.7639C33.6416 36.6668 33.5452 36.5559 33.4488 36.4589C33.311 36.3064 33.1595 36.154 32.9804 36.0153C32.7325 35.8213 32.4156 35.6965 32.0713 35.6411C31.906 35.6134 31.7406 35.5995 31.5478 35.5995C31.2861 35.5995 31.0106 35.6272 30.7626 35.6411C30.556 35.6549 30.3494 35.6827 30.1427 35.6827C30.0876 35.6827 30.0463 35.6827 29.9912 35.6827C29.7157 35.6827 29.4815 35.6549 29.2887 35.5856C29.0132 35.5025 28.8065 35.3223 28.5861 35.1282L28.5448 35.0866C28.2693 34.851 27.9111 34.643 27.553 34.6014C27.4979 34.6014 27.4428 34.5876 27.3739 34.5876C27.2637 34.5737 27.1535 34.5737 27.0433 34.546C26.9469 34.5183 26.878 34.4628 26.8229 34.3796C26.7403 34.2133 26.7403 33.9638 26.8505 33.7697C27.0571 33.3816 27.4428 33.243 27.856 33.1044C28.0076 33.0489 28.1729 32.9935 28.3244 32.9242C28.5035 32.841 28.6826 32.7301 28.8479 32.6192C29.0545 32.4806 29.2473 32.3558 29.4677 32.2727L29.5091 32.2588C29.6055 32.2172 29.7019 32.1895 29.7983 32.1895C29.8534 32.1895 29.9085 32.2034 29.9637 32.2449C30.0188 32.2865 30.0325 32.3697 30.0601 32.4806C30.0876 32.6192 30.129 32.7994 30.3218 32.8687C30.3356 32.8687 30.3631 32.8826 30.3769 32.8826C30.5009 32.8826 30.7626 32.7855 31.1621 32.6331C31.3963 32.5499 31.6305 32.4529 31.7131 32.439C31.9197 32.4113 32.1126 32.3974 32.3192 32.3974C33.2284 32.3974 34.0411 32.744 34.5921 33.3539C34.6748 33.4509 34.7574 33.5479 34.8538 33.6588C35.212 34.1024 35.5977 34.5737 36.1625 34.5737H36.2038C36.4518 34.5599 36.6722 34.4628 36.8788 34.3658C36.9477 34.3381 37.0028 34.3103 37.0716 34.2826C37.3885 34.144 37.7329 34.0747 38.0772 34.0747C38.3114 34.0747 38.5456 34.1024 38.7798 34.1717C38.9451 34.2133 39.0691 34.241 39.1793 34.241C39.5374 34.241 39.6476 34.0054 39.744 33.7697C39.8129 33.6311 39.8818 33.4648 40.0195 33.3262C40.1297 33.2153 40.2537 33.1598 40.3639 33.1598C40.6394 33.1598 40.9425 33.4786 41.2593 34.0886L41.2731 34.1301C41.6175 34.8371 41.893 35.3638 41.6312 36.154ZM43.1878 34.1856C43.1603 34.1995 43.119 34.1994 43.0914 34.1994C42.8021 34.1994 42.444 33.8945 42.2373 33.7143L42.2098 33.6866C41.3971 32.9796 41.4522 32.1479 41.5073 31.2746C41.5348 30.8172 41.5624 30.3459 41.4797 29.8607C41.4384 29.6666 41.3695 29.4587 41.2869 29.2785C41.1629 28.9735 41.0527 28.6824 41.1491 28.4884C41.218 28.3498 41.3695 28.2527 41.6312 28.1696C41.9343 28.0725 42.2236 28.0171 42.5128 27.9616C43.1327 27.8369 43.7251 27.7121 44.3174 27.3101C45.3368 26.6309 46.1633 25.7576 46.7281 24.7596C46.9071 24.4407 47.0173 24.0387 47.1275 23.609C47.3342 22.8744 47.5408 22.112 48.078 21.8486C48.202 21.7793 48.326 21.7515 48.45 21.7515C49.0836 21.7515 49.4555 22.6941 49.6484 23.1516C49.6897 23.2348 49.7173 23.3318 49.731 23.415C49.9101 24.1912 49.2902 24.5794 48.629 24.9952C48.4913 25.0784 48.3673 25.1615 48.2433 25.2447C47.4857 25.7715 46.7969 26.4091 46.2322 27.1577C45.7087 27.8369 45.2954 28.5854 45.0062 29.3755C44.7995 29.93 44.648 30.5122 44.5103 31.0667C44.4001 31.5103 44.2898 31.9677 44.1383 32.3974L44.097 32.5222C43.9592 33.0212 43.6286 34.0608 43.1878 34.1856ZM50.8331 28.6547C50.778 28.724 50.7366 28.8072 50.6815 28.8904C50.53 28.6131 50.3234 28.4052 50.0479 28.2527C50.0066 28.225 49.9652 28.225 49.9239 28.225C49.8137 28.225 49.7035 28.2943 49.6622 28.4052C49.6208 28.5022 49.6484 28.6131 49.731 28.6825C49.9652 28.9042 50.1305 29.1953 50.2407 29.5973C50.2683 29.6944 50.2958 29.8053 50.3096 29.9161L50.3234 30.0132C50.3234 30.1102 50.3096 30.2072 50.3096 30.2904C50.3096 30.3597 50.3096 30.429 50.2958 30.5122C50.2821 30.6924 50.2683 30.8865 50.1719 31.039C50.103 31.1499 50.0066 31.2469 49.855 31.3301C49.7173 31.3994 49.5795 31.4409 49.428 31.4964C49.2765 31.5518 49.1249 31.5934 48.9734 31.6766C48.8081 31.7598 48.7117 31.8845 48.6153 31.9816C48.5602 32.0509 48.5051 32.1063 48.4362 32.1618C48.2984 32.2865 48.1607 32.342 48.0505 32.342C47.9127 32.342 47.7887 32.2449 47.6785 32.0647C47.5408 31.8429 47.4306 31.6211 47.3617 31.3716C47.3479 31.3439 47.3479 31.3162 47.3342 31.2746C47.2653 31.039 47.1689 30.7201 46.9485 30.5954C46.8934 30.5677 46.7832 30.5261 46.673 30.5261C46.5628 30.5261 46.5077 30.5677 46.4663 30.6092C46.425 30.6647 46.4112 30.7617 46.4388 30.8588C46.8107 32.2865 46.5214 33.839 45.6811 34.8094C45.4194 35.1143 45.0199 35.2945 44.6067 35.2945C44.4138 35.2945 44.221 35.2529 44.0557 35.1698C43.849 35.0727 43.6562 34.9203 43.5184 34.7401C43.9179 34.2965 44.2485 33.7559 44.524 33.0628C44.6756 32.7024 44.772 32.3142 44.8822 31.8984C45.1715 30.831 45.4745 29.7221 46.4526 29.2092C46.7281 29.0567 47.0449 29.0013 47.3755 28.932C47.527 28.9042 47.6785 28.8765 47.8301 28.8349C48.1882 28.7379 48.8219 28.5022 49.0147 27.9201C49.0698 27.7398 49.0836 27.5596 49.0836 27.3794C49.0836 27.1854 49.0974 27.0052 49.1525 26.8527C49.2765 26.5339 49.5106 26.3675 49.8275 26.3675C50.2407 26.3675 50.7642 26.6725 50.9846 27.0606C51.2188 27.4487 51.2601 27.823 51.1086 28.1418C51.0535 28.3082 50.9433 28.4745 50.8331 28.6547ZM52.1004 20.0327C52.1417 19.9079 52.1693 19.7693 52.1693 19.6446C52.183 19.6446 52.1968 19.6446 52.1968 19.6446C52.307 19.6168 52.431 19.603 52.5412 19.5891C53.0509 19.5059 52.6101 20.2406 52.9131 20.2822C52.9544 20.2822 52.9958 20.2683 53.0233 20.2545C53.1473 20.199 53.285 20.1713 53.3953 20.1159C54.0289 19.7832 54.7728 19.6584 55.4891 19.7416C55.5166 19.7416 55.2411 20.5733 55.2411 20.6565C55.2136 20.8921 55.5029 20.7812 55.6268 20.7674C56.2605 20.7258 56.9079 20.7951 57.5416 20.8367C57.8033 20.8505 58.0513 20.8505 58.2992 20.9198C58.3819 20.9476 58.4921 20.9337 58.5058 21.0446C58.5058 21.0862 58.4921 21.1416 58.4783 21.1832C58.4232 21.3773 58.3956 21.5713 58.3956 21.7793C58.3956 22.0981 59.0706 22.0011 59.2773 22.0426C59.6216 22.112 59.9522 22.1813 60.2828 22.2783C60.4619 22.3199 60.5997 22.3476 60.765 22.4308C60.7925 22.4446 60.8201 22.4585 60.8339 22.4862C60.8614 22.5278 60.8201 22.5833 60.7925 22.6248C60.6823 22.805 60.5859 22.9852 60.5308 23.1932C60.517 23.2348 60.5033 23.2763 60.517 23.3041C60.5446 23.512 61.0129 23.5952 61.1645 23.6368C61.4537 23.7199 61.743 23.817 62.0185 23.9417C62.5695 24.1774 63.0792 24.4823 63.4511 24.9675C62.9415 25.2309 62.418 25.4804 61.9083 25.7437C61.6466 25.8685 61.3986 26.0071 61.1369 26.1319C61.068 26.1735 60.9165 26.215 60.889 26.2982C60.8476 26.3953 60.9578 26.5616 60.9992 26.6448C61.1094 26.8666 61.1369 27.0606 60.889 27.1715C60.7099 27.2547 60.4895 27.2547 60.2966 27.2685C59.8558 27.2963 59.415 27.227 58.988 27.2547C58.616 27.2824 58.7676 27.6428 58.6298 27.8785C58.5885 27.9478 58.5334 27.9755 58.4645 28.0032C58.3405 28.0448 58.2166 28.0448 58.0788 28.0309C57.8584 28.0171 57.3625 27.823 57.1972 28.0171C57.1008 28.1418 57.2799 28.4191 57.335 28.5438C57.3625 28.5854 57.3763 28.6409 57.3763 28.6963C57.3763 28.8211 57.211 28.8904 57.1146 28.9042C56.7426 29.0013 56.288 28.9042 55.9161 28.8627C55.4615 28.7933 55.0207 28.7102 54.5799 28.5854C54.1667 28.4745 53.7396 28.2666 53.3126 28.2666C53.2713 28.2666 53.2162 28.2666 53.1886 28.3082C53.1611 28.3359 53.1611 28.3914 53.1611 28.4329C53.1886 28.9458 52.9958 29.5557 52.3621 29.4726C52.0315 29.431 51.7147 29.3201 51.3841 29.2508C51.3152 29.2369 51.2601 29.2231 51.1912 29.2092C51.2463 29.126 51.3014 29.0429 51.3565 28.9597C51.3978 28.9042 51.4254 28.8488 51.4667 28.7933C51.7836 28.3082 51.88 27.8785 51.7973 27.4349C51.7009 26.9081 51.3565 26.4784 51.0259 26.0626L50.957 25.9655C50.9157 25.9101 50.8606 25.8546 50.8193 25.7853C50.6815 25.619 50.5438 25.4526 50.4887 25.314C50.7642 25.314 51.5769 25.3972 51.6596 25.4111C52.431 25.4665 52.8856 26.2844 53.409 26.7695C53.6983 27.0329 53.9325 27.2547 54.3044 27.4072C54.5661 27.5181 54.8416 27.6151 55.1309 27.6844C55.2411 27.7121 55.6819 27.8092 55.5166 27.5319C55.434 27.3933 54.9794 27.2547 54.8279 27.1715C54.5799 27.0329 54.3595 26.8804 54.1253 26.7002C53.8361 26.4784 53.5192 26.2289 53.3126 25.9378C53.2024 25.7715 53.1611 25.6051 53.409 25.5635C53.7396 25.5081 54.1667 25.619 54.4973 25.6329C55.0483 25.6606 55.4753 25.7576 55.8472 26.1873C56.2192 26.617 56.6875 26.9497 57.211 27.1715C57.2799 27.1992 57.4865 27.1715 57.5003 27.0606C57.5003 27.019 57.4589 26.9774 57.4314 26.9497C57.1972 26.7695 55.9437 25.7992 56.839 25.6744C57.2523 25.619 57.6931 25.5913 58.0926 25.7022C58.2992 25.7576 58.437 25.8824 58.6298 25.9655C58.8502 26.0626 59.0844 26.1596 59.3186 26.2289C59.4012 26.2566 59.4701 26.2705 59.5528 26.2705C59.7456 26.2566 59.8007 26.0903 59.6354 25.9794C59.4701 25.8824 59.0431 25.7022 59.1946 25.4665C59.291 25.3279 59.5941 25.2586 59.7456 25.1893C59.966 25.0922 60.2002 24.9813 60.4206 24.8843C60.5583 24.8289 60.6961 24.7596 60.8201 24.6764C61.0267 24.5516 60.9716 24.3298 60.7237 24.4269C60.0211 24.6902 59.291 24.8843 58.5472 24.9952C58.1752 25.0507 57.8033 25.0922 57.4314 25.12C57.2799 25.1338 57.0732 25.1754 56.9492 25.0784C56.4671 24.7457 58.9467 23.2625 59.2222 23.0961C59.2773 23.0684 59.3324 23.0268 59.3599 22.9575C59.4012 22.8189 59.2497 22.8189 59.1671 22.8328C58.3543 23.0823 57.5967 23.4981 56.9492 24.0526C56.6462 24.316 56.3982 24.6764 56.0952 24.9259C55.7921 25.1616 55.3789 25.1477 55.0345 25.1338C54.6488 25.12 54.2769 25.0922 53.8912 25.0645C53.5881 25.0368 53.2851 24.8982 53.5606 24.5655C53.6983 24.3992 53.9325 24.2744 54.0978 24.1496C54.3182 23.9833 54.5386 23.817 54.759 23.6368C55.0896 23.3734 55.434 23.1377 55.7646 22.8882C56.109 22.6526 56.4533 22.4169 56.8115 22.1813C56.8528 22.1535 56.8804 22.1397 56.9079 22.0981C56.9768 21.9733 56.8528 21.9179 56.7564 21.9179C55.9023 21.9595 55.2411 22.5971 54.6075 23.0961C54.084 23.4981 53.5468 23.914 53.0233 24.316C52.5412 24.6903 52.1279 24.8982 51.508 24.8566C51.4529 24.8566 51.081 24.8427 50.778 24.815C50.8468 24.7457 50.9157 24.6487 50.9433 24.5378C50.9846 24.3853 50.9708 24.2189 50.8882 24.0803C50.8468 24.011 50.8055 23.9694 50.7642 23.914C50.7366 23.8863 50.7229 23.8585 50.6953 23.8308C50.5576 23.6506 50.4749 23.4427 50.4336 23.2348C50.4887 23.1793 50.53 23.1377 50.5851 23.0823C51.2463 22.4169 52.0728 21.7793 53.0509 21.7515C53.2988 21.7377 53.2988 21.502 53.0784 21.4327C52.9958 21.405 52.9269 21.4189 52.8442 21.4189C52.5825 21.4466 52.307 21.4743 52.0591 21.5436C51.8387 21.5991 51.6871 21.6961 51.4805 21.7793C51.0948 21.9595 50.778 22.1951 50.4611 22.4724C50.5438 22.1258 50.7091 21.7931 50.9295 21.5575C51.0121 21.4743 51.0948 21.3911 51.1774 21.308C51.5356 20.9614 51.9213 20.5733 52.1004 20.0327ZM50.6264 15.5137C50.957 15.7217 51.3427 15.9573 51.3978 16.3454C51.4254 16.5811 51.3565 16.8167 51.3014 17.0524L51.2876 17.1217C51.205 17.4128 51.1223 17.7178 51.1361 18.0227C51.1499 18.3554 51.2876 18.6465 51.4254 18.9237L51.4392 18.9376C51.5494 19.1594 51.6458 19.395 51.6045 19.6584C51.5494 20.1297 50.8331 21.1694 50.227 21.1694C50.1856 21.1694 50.1581 21.1694 50.1168 21.1555C50.0066 21.1278 49.8964 21.0585 49.7999 20.9476C49.6071 20.7119 49.5382 20.3654 49.5933 19.8941C49.6071 19.797 49.6209 19.6861 49.6346 19.5891C49.676 19.298 49.7311 18.993 49.6897 18.702C49.6759 18.5911 49.6484 18.4386 49.5382 18.3277C49.428 18.2168 49.2902 18.1752 49.1525 18.1475L49.1112 18.1336C48.2571 17.898 47.5546 17.1633 47.3617 16.29C47.3479 16.2068 47.3342 16.1237 47.3066 16.0405C47.2377 15.6385 47.1551 15.1949 46.7832 14.987C46.673 14.9315 46.549 14.9038 46.3837 14.9038C46.2459 14.9038 46.0944 14.9177 45.9566 14.9454C45.8189 14.9593 45.6811 14.987 45.5709 14.987C45.3368 14.987 45.1715 14.9177 45.1301 14.6127C45.1026 14.4325 45.1715 14.2384 45.2266 14.086C45.5709 13.2543 46.7832 11.979 47.8439 11.979C48.078 11.979 48.2984 12.0483 48.4913 12.173C48.8219 12.381 48.9596 12.7968 49.0698 13.1711C49.0974 13.2681 49.1249 13.3652 49.1525 13.4622C49.2489 13.8226 49.3453 14.2107 49.5382 14.5434C49.7862 15.0009 50.227 15.2781 50.6264 15.5137ZM56.4947 17.1356C56.8804 17.2742 57.1283 17.288 57.5278 17.2742C57.5967 17.2742 57.7207 17.2603 57.8309 17.2326C58.0375 17.191 58.2028 17.094 57.9273 16.9554C57.8033 16.8861 57.5691 16.9276 57.4314 16.8999C57.1834 16.8583 56.536 16.7197 56.7564 16.3316C56.9355 16.0266 57.2661 16.0405 57.5967 16.0405C57.7895 16.0405 57.9548 16.0543 58.1201 16.0821C58.5885 16.1652 59.0293 16.3593 59.415 16.6365C59.8145 16.9138 60.4206 17.5237 60.5583 17.995C60.7237 18.5911 60.0762 18.6881 59.6767 18.7574C59.3186 18.8267 58.9742 18.8544 58.6436 18.8544C57.7895 18.8544 57.087 18.6465 56.5498 18.2168C56.3294 18.0366 56.0263 17.7732 55.9023 17.5098C55.7095 17.094 56.2054 17.0247 56.4947 17.1356ZM65.3797 10.9393C64.4981 12.0899 63.3685 13.0186 62.2114 13.5454C61.7017 13.781 61.1782 13.8919 60.7099 13.8919C60.3379 13.8919 59.4426 13.781 59.6354 13.1711C59.7456 12.8245 60.2691 12.783 60.5583 12.6582C60.8614 12.5334 61.619 12.3255 61.6328 11.9097C61.6328 11.8542 61.619 11.7988 61.5915 11.7711C61.5364 11.7156 61.44 11.7295 61.3573 11.7433C60.8476 11.8681 59.8283 12.7968 59.3186 12.2701C58.9742 11.9097 59.5114 11.3552 59.7456 11.078C60.5859 10.0383 61.8394 9.41454 63.1756 9.37296C63.217 9.37296 63.2583 9.37296 63.2996 9.37296C63.6715 9.37296 64.0572 9.42841 64.4292 9.48385C64.9251 9.55316 65.6827 9.4284 65.8756 9.99674C65.9996 10.3017 65.545 10.7037 65.3797 10.9393Z" fill="white"/>
</svg>
