<svg width="61" height="33" viewBox="0 0 61 33" fill="none" xmlns="http://www.w3.org/2000/svg">
    <g clip-path="url(#clip0_126_4)">
        <path d="M0.814086 22.405V27.2165H6.78673V27.9536H0.814086V32.9271H0V21.6598H7.49604V22.405H0.814086Z" fill="#1D1D1B"/>
        <path d="M11.4536 20.9875H12.2516V32.9271H11.4536V20.9875V20.9875Z" fill="#1D1D1B"/>
        <path d="M18.3613 32.4492C17.7245 32.0847 17.2248 31.5744 16.8621 30.9264C16.4994 30.2784 16.314 29.5412 16.314 28.7312C16.314 27.9212 16.4913 27.1841 16.8621 26.5361C17.2248 25.8881 17.7245 25.3778 18.3613 25.0133C18.998 24.6488 19.7073 24.4706 20.4972 24.4706C21.2871 24.4706 21.9964 24.6488 22.6332 25.0133C23.27 25.3778 23.7697 25.8881 24.1324 26.5361C24.4951 27.1841 24.6805 27.9131 24.6805 28.7312C24.6805 29.5493 24.5032 30.2784 24.1324 30.9264C23.7697 31.5744 23.27 32.0847 22.6332 32.4492C21.9964 32.8137 21.2871 33 20.4972 33C19.7073 33 18.998 32.8218 18.3613 32.4492ZM22.2221 31.8255C22.7299 31.5258 23.1329 31.1046 23.4231 30.57C23.7133 30.0354 23.8664 29.4197 23.8664 28.7312C23.8664 28.0427 23.7213 27.4352 23.4231 26.8925C23.1249 26.3579 22.7299 25.9367 22.2221 25.637C21.7143 25.3373 21.1421 25.1834 20.4972 25.1834C19.8524 25.1834 19.2801 25.3373 18.7723 25.637C18.2645 25.9367 17.8615 26.3579 17.5714 26.8925C17.2812 27.4271 17.1361 28.0427 17.1361 28.7312C17.1361 29.4197 17.2812 30.0273 17.5714 30.57C17.8696 31.1046 18.2645 31.5258 18.7723 31.8255C19.2801 32.1252 19.8524 32.2791 20.4972 32.2791C21.1421 32.2791 21.7143 32.1333 22.2221 31.8255Z" fill="#1D1D1B"/>
        <path d="M30.7337 24.9566C31.2818 24.6326 31.9428 24.4706 32.7166 24.4706V25.2563L32.5231 25.2401C31.5962 25.2401 30.8708 25.5317 30.3468 26.1149C29.8229 26.6981 29.565 27.5162 29.565 28.553V32.9271H28.767V24.5273H29.5328V26.3579C29.7907 25.7504 30.1856 25.2806 30.7337 24.9485V24.9566Z" fill="#1D1D1B"/>
        <path d="M43.5173 28.9256H36.3276C36.3517 29.5817 36.5129 30.165 36.8273 30.6753C37.1336 31.1856 37.5608 31.5825 38.0847 31.8579C38.6167 32.1333 39.2051 32.2791 39.8741 32.2791C40.4222 32.2791 40.9219 32.1819 41.3894 31.9794C41.8569 31.7769 42.2438 31.4853 42.5501 31.1046L43.0176 31.6392C42.6549 32.0766 42.1954 32.4168 41.6473 32.6517C41.0992 32.8866 40.5028 33.0081 39.858 33.0081C39.0277 33.0081 38.2862 32.8299 37.6333 32.4573C36.9804 32.0928 36.4726 31.5906 36.1019 30.9426C35.7311 30.3027 35.5457 29.5655 35.5457 28.7393C35.5457 27.9131 35.723 27.1922 36.0696 26.5442C36.4162 25.8962 36.8918 25.3859 37.5044 25.0214C38.1169 24.6569 38.794 24.4787 39.5517 24.4787C40.3093 24.4787 40.9944 24.6569 41.5909 25.0133C42.1954 25.3697 42.671 25.8719 43.0176 26.5199C43.3642 27.1679 43.5415 27.8969 43.5415 28.7069L43.5254 28.9337L43.5173 28.9256ZM37.9638 25.5722C37.4963 25.8395 37.1175 26.204 36.8354 26.6819C36.5532 27.1598 36.392 27.6944 36.3437 28.3019H42.7516C42.7193 27.7025 42.5581 27.1679 42.268 26.69C41.9778 26.2202 41.599 25.8476 41.1315 25.5803C40.664 25.313 40.132 25.1753 39.5436 25.1753C38.9552 25.1753 38.4313 25.3049 37.9557 25.5722H37.9638Z" fill="#1D1D1B"/>
        <path d="M51.7629 32.4006C51.5614 32.595 51.3035 32.7408 51.0053 32.8461C50.699 32.9514 50.3846 33 50.0542 33C49.3287 33 48.7645 32.7975 48.3696 32.3925C47.9746 31.9875 47.7731 31.4286 47.7731 30.7077V25.2158H46.2336V24.5273H47.7731V22.6885H48.5711V24.5273H51.231V25.2158H48.5711V30.6267C48.5711 31.1775 48.7 31.5906 48.966 31.8741C49.224 32.1576 49.6109 32.3034 50.1267 32.3034C50.6426 32.3034 51.0859 32.1495 51.4244 31.8336L51.7629 32.4006Z" fill="#1D1D1B"/>
        <path d="M55.785 32.6922C55.1724 32.4897 54.7049 32.2305 54.3583 31.9227L54.7291 31.2747C55.0676 31.5663 55.511 31.8093 56.051 31.9956C56.591 32.19 57.1552 32.2872 57.7436 32.2872C58.59 32.2872 59.2106 32.1495 59.6136 31.866C60.0166 31.5825 60.2181 31.2018 60.2181 30.7077C60.2181 30.3513 60.1053 30.0759 59.8877 29.8733C59.67 29.6708 59.396 29.5169 59.0816 29.4197C58.7592 29.3225 58.3159 29.2253 57.7517 29.1119C57.0908 28.9904 56.5588 28.8608 56.1477 28.7231C55.7447 28.5854 55.3981 28.3586 55.1079 28.0508C54.8178 27.743 54.6727 27.3056 54.6727 26.7629C54.6727 26.0987 54.9467 25.5479 55.4948 25.1105C56.0429 24.6731 56.8248 24.4624 57.8404 24.4624C58.3723 24.4624 58.9043 24.5353 59.4282 24.6893C59.9522 24.8351 60.3793 25.0376 60.7098 25.2806L60.339 25.9286C60.0005 25.6775 59.6056 25.4912 59.1703 25.3616C58.7351 25.232 58.2837 25.1672 57.8242 25.1672C57.0424 25.1672 56.454 25.313 56.0591 25.6046C55.6641 25.8962 55.4626 26.2769 55.4626 26.7467C55.4626 27.1193 55.5754 27.4109 55.8011 27.6215C56.0268 27.8321 56.3009 27.986 56.6233 28.0913C56.9457 28.1966 57.4051 28.3019 57.9935 28.4234C58.6464 28.5449 59.1703 28.6664 59.5733 28.8041C59.9763 28.9418 60.3149 29.1524 60.5889 29.4602C60.863 29.768 61.008 30.1731 61.008 30.6996C61.008 31.3962 60.7179 31.9551 60.1456 32.3763C59.5653 32.7975 58.7592 33 57.7114 33C57.0424 33 56.3976 32.8947 55.785 32.6922V32.6922Z" fill="#1D1D1B"/>
        <path d="M11.4536 11.891H12.2516V23.8306H11.4536V11.891Z" fill="#1D1D1B"/>
        <path d="M7.1736 3.34535C11.6067 5.19219 13.7185 10.3034 11.8808 14.7666C7.44765 12.9197 5.33586 7.80853 7.1736 3.34535V3.34535Z" fill="#EC0121" stroke="#1D1D1B" stroke-width="0.99"/>
        <path d="M11.8728 14.7585C10.035 10.3034 12.1387 5.18408 16.5799 3.33725C18.4177 7.79233 16.314 12.9116 11.8728 14.7585Z" fill="#EC0121" stroke="#1D1D1B" stroke-width="0.99"/>
        <path d="M14.5246 5.5891C14.4037 5.10309 14.1941 4.25257 13.6057 3.36966C13.2591 2.83505 12.3402 1.85493 11.8727 0.907211C11.4052 1.85493 10.4944 2.83505 10.1398 3.36966C9.55138 4.25257 9.33375 5.10309 9.22091 5.5891C9.22091 5.5891 8.97104 6.62591 9.02746 7.85714C9.16448 10.8299 11.639 14.4345 11.8727 14.7585C12.7674 13.7216 14.6132 11.2592 14.718 7.85714C14.7422 7.01472 14.6616 6.25331 14.5246 5.5891V5.5891Z" fill="#EC0121" stroke="#1D1D1B" stroke-width="0.99"/>
        <path d="M20.6101 6.0184C14.8792 5.7511 11.5503 11.9963 11.9131 14.7585C14.8792 14.5641 18.2404 13.1465 19.3124 10.1657C19.7557 9.04786 19.6912 7.07952 20.6101 6.0184V6.0184Z" fill="#EC0121" stroke="#1D1D1B" stroke-width="0.99"/>
        <path d="M3.15155 6.0184C8.88239 5.7511 12.2113 11.9963 11.8486 14.7585C8.88239 14.5641 5.52126 13.1465 4.44925 10.1657C4.00594 9.04786 4.07042 7.07952 3.15155 6.0184V6.0184Z" fill="#EC0121" stroke="#1D1D1B" stroke-width="0.99"/>
    </g>
    <defs>
        <clipPath id="clip0_126_4">
            <rect width="61" height="33" fill="white"/>
        </clipPath>
    </defs>
</svg>
