<svg xmlns="http://www.w3.org/2000/svg" viewBox="0 0 75.68 40.74"><defs><style>.cls-1{fill:#1d1d1b;}.cls-2{fill:#e63422;stroke:#1d1d1b;stroke-width:0.99px;}</style></defs><g id="Layer_2"><g id="Layer_1-2"><path class="cls-1" d="M1,27.66V33.6H8.42v.92H1v6.14H0V26.75H9.3v.91Z"/><path class="cls-1" d="M14.21,25.91h1V40.66h-1Z"/><path class="cls-1" d="M22.78,40.06a4.8,4.8,0,0,1-1.86-1.88,5.82,5.82,0,0,1,0-5.42,4.87,4.87,0,0,1,1.86-1.88,5.58,5.58,0,0,1,5.3,0,4.87,4.87,0,0,1,1.86,1.88,5.74,5.74,0,0,1,0,5.42,4.8,4.8,0,0,1-1.86,1.88,5.5,5.5,0,0,1-5.3,0Zm4.79-.77a4,4,0,0,0,1.49-1.55,4.94,4.94,0,0,0,0-4.53,4,4,0,0,0-1.49-1.55,4.35,4.35,0,0,0-4.27,0,3.9,3.9,0,0,0-1.49,1.55,4.94,4.94,0,0,0,0,4.53,4,4,0,0,0,1.49,1.55,4.42,4.42,0,0,0,4.27,0Z"/><path class="cls-1" d="M38.13,30.81a4.77,4.77,0,0,1,2.46-.6v1l-.24,0a3.45,3.45,0,0,0-2.7,1.08,4.36,4.36,0,0,0-1,3v5.41h-1V30.29h1v2.26A3.63,3.63,0,0,1,38.13,30.81Z"/><path class="cls-1" d="M54,35.71H45.06a4.43,4.43,0,0,0,.62,2.16,3.92,3.92,0,0,0,1.56,1.46,4.73,4.73,0,0,0,2.21.51,4.81,4.81,0,0,0,1.88-.36,3.63,3.63,0,0,0,1.44-1.09l.58.66a4.46,4.46,0,0,1-1.7,1.25,5.89,5.89,0,0,1-5-.24,4.85,4.85,0,0,1-1.89-1.87,5.31,5.31,0,0,1-.69-2.72,5.54,5.54,0,0,1,.65-2.71,4.79,4.79,0,0,1,1.77-1.88,5.18,5.18,0,0,1,5.08,0,4.8,4.8,0,0,1,1.77,1.86,5.61,5.61,0,0,1,.65,2.7Zm-6.9-4.14a3.68,3.68,0,0,0-1.4,1.37,4.56,4.56,0,0,0-.61,2h8a4.22,4.22,0,0,0-.59-2,4.06,4.06,0,0,0-5.35-1.38Z"/><path class="cls-1" d="M64.22,40a2.53,2.53,0,0,1-.95.55,3.84,3.84,0,0,1-1.18.19A2.78,2.78,0,0,1,60,40a2.82,2.82,0,0,1-.74-2.07V31.14H57.36v-.85h1.91V28h1v2.27h3.3v.85h-3.3v6.68a2.22,2.22,0,0,0,.49,1.54,1.87,1.87,0,0,0,1.44.52,2.31,2.31,0,0,0,1.61-.57Z"/><path class="cls-1" d="M69.21,40.36a4.9,4.9,0,0,1-1.77-1l.45-.8a5.31,5.31,0,0,0,1.64.9,6.43,6.43,0,0,0,2.1.35,4.12,4.12,0,0,0,2.31-.51,1.65,1.65,0,0,0,.75-1.43,1.36,1.36,0,0,0-.41-1,2.49,2.49,0,0,0-1-.55A16.32,16.32,0,0,0,71.63,36a15,15,0,0,1-2-.48,3.16,3.16,0,0,1-1.29-.83,2.25,2.25,0,0,1-.54-1.59,2.51,2.51,0,0,1,1-2,4.58,4.58,0,0,1,2.91-.8,7,7,0,0,1,2,.28,4.89,4.89,0,0,1,1.59.73l-.46.8a4.76,4.76,0,0,0-1.45-.7,5.92,5.92,0,0,0-1.67-.24,3.68,3.68,0,0,0-2.19.54A1.65,1.65,0,0,0,68.81,33a1.4,1.4,0,0,0,.42,1.08,2.55,2.55,0,0,0,1,.58c.4.12,1,.26,1.7.4a15.64,15.64,0,0,1,2,.47,3.08,3.08,0,0,1,1.27.81,2.18,2.18,0,0,1,.51,1.53A2.39,2.39,0,0,1,74.61,40a5.07,5.07,0,0,1-3,.78A7.51,7.51,0,0,1,69.21,40.36Z"/><path class="cls-1" d="M14.21,14.68h1V29.42h-1Z"/><path class="cls-2" d="M8.9,4.13a10.78,10.78,0,0,1,5.84,14.09A10.79,10.79,0,0,1,8.9,4.13Z"/><path class="cls-2" d="M14.73,18.22A10.79,10.79,0,0,1,20.57,4.13,10.78,10.78,0,0,1,14.73,18.22Z"/><path class="cls-2" d="M18,6.9a8.06,8.06,0,0,0-1.14-2.74,26.62,26.62,0,0,1-2.15-3,27.65,27.65,0,0,1-2.14,3A8.13,8.13,0,0,0,11.44,6.9a11.11,11.11,0,0,0-.24,2.8c.18,3.67,3.25,8.11,3.53,8.52A13.89,13.89,0,0,0,18.26,9.7,12.08,12.08,0,0,0,18,6.9Z"/><path class="cls-2" d="M25.57,7.43c-7.11-.32-11.24,7.38-10.79,10.79,3.68-.24,7.85-2,9.18-5.67C24.51,11.17,24.43,8.74,25.57,7.43Z"/><path class="cls-2" d="M3.91,7.43C11,7.11,15.15,14.81,14.7,18.22c-3.68-.24-7.85-2-9.18-5.67C5,11.17,5.05,8.74,3.91,7.43Z"/></g></g></svg>
