<svg width="61" height="33" viewBox="0 0 61 33" fill="none" xmlns="http://www.w3.org/2000/svg">
<g clip-path="url(#clip0_406_800)">
<path d="M0.814086 22.405V27.2165H6.78673V27.9536H0.814086V32.9271H0V21.6598H7.49604V22.405H0.814086Z" fill="#1D1D1B"/>
<path d="M11.4541 20.9875H12.2521V32.9271H11.4541V20.9875V20.9875Z" fill="#1D1D1B"/>
<path d="M18.3608 32.4492C17.724 32.0847 17.2243 31.5744 16.8616 30.9264C16.4989 30.2784 16.3135 29.5412 16.3135 28.7312C16.3135 27.9212 16.4908 27.1841 16.8616 26.5361C17.2243 25.8881 17.724 25.3778 18.3608 25.0133C18.9975 24.6488 19.7068 24.4706 20.4967 24.4706C21.2867 24.4706 21.996 24.6488 22.6327 25.0133C23.2695 25.3778 23.7692 25.8881 24.1319 26.5361C24.4946 27.1841 24.68 27.9131 24.68 28.7312C24.68 29.5493 24.5027 30.2784 24.1319 30.9264C23.7692 31.5744 23.2695 32.0847 22.6327 32.4492C21.996 32.8137 21.2867 33 20.4967 33C19.7068 33 18.9975 32.8218 18.3608 32.4492ZM22.2216 31.8255C22.7294 31.5258 23.1325 31.1046 23.4226 30.57C23.7128 30.0354 23.8659 29.4197 23.8659 28.7312C23.8659 28.0427 23.7208 27.4352 23.4226 26.8925C23.1244 26.3579 22.7294 25.9367 22.2216 25.637C21.7138 25.3373 21.1416 25.1834 20.4967 25.1834C19.8519 25.1834 19.2797 25.3373 18.7719 25.637C18.2641 25.9367 17.861 26.3579 17.5709 26.8925C17.2807 27.4271 17.1356 28.0427 17.1356 28.7312C17.1356 29.4197 17.2807 30.0273 17.5709 30.57C17.8691 31.1046 18.2641 31.5258 18.7719 31.8255C19.2797 32.1252 19.8519 32.2791 20.4967 32.2791C21.1416 32.2791 21.7138 32.1333 22.2216 31.8255Z" fill="#1D1D1B"/>
<path d="M30.7333 24.9566C31.2814 24.6326 31.9423 24.4706 32.7161 24.4706V25.2563L32.5227 25.2401C31.5958 25.2401 30.8703 25.5317 30.3464 26.1149C29.8225 26.6981 29.5646 27.5162 29.5646 28.553V32.9271H28.7666V24.5273H29.5323V26.3579C29.7903 25.7504 30.1852 25.2806 30.7333 24.9485V24.9566Z" fill="#1D1D1B"/>
<path d="M43.5175 28.9256H36.3277C36.3519 29.5817 36.5131 30.165 36.8275 30.6753C37.1338 31.1856 37.561 31.5825 38.0849 31.8579C38.6169 32.1333 39.2053 32.2791 39.8743 32.2791C40.4224 32.2791 40.9221 32.1819 41.3896 31.9794C41.8571 31.7769 42.244 31.4853 42.5503 31.1046L43.0178 31.6392C42.655 32.0766 42.1956 32.4168 41.6475 32.6517C41.0994 32.8866 40.503 33.0081 39.8581 33.0081C39.0279 33.0081 38.2864 32.8299 37.6335 32.4573C36.9806 32.0928 36.4728 31.5906 36.1021 30.9426C35.7313 30.3027 35.5459 29.5655 35.5459 28.7393C35.5459 27.9131 35.7232 27.1922 36.0698 26.5442C36.4164 25.8962 36.892 25.3859 37.5045 25.0214C38.1171 24.6569 38.7942 24.4787 39.5518 24.4787C40.3095 24.4787 40.9946 24.6569 41.5911 25.0133C42.1956 25.3697 42.6712 25.8719 43.0178 26.5199C43.3643 27.1679 43.5417 27.8969 43.5417 28.7069L43.5256 28.9337L43.5175 28.9256ZM37.964 25.5722C37.4965 25.8395 37.1176 26.204 36.8355 26.6819C36.5534 27.1598 36.3922 27.6944 36.3439 28.3019H42.7518C42.7195 27.7025 42.5583 27.1679 42.2682 26.69C41.978 26.2202 41.5991 25.8476 41.1317 25.5803C40.6642 25.313 40.1322 25.1753 39.5438 25.1753C38.9554 25.1753 38.4315 25.3049 37.9559 25.5722H37.964Z" fill="#1D1D1B"/>
<path d="M51.7627 32.4006C51.5612 32.595 51.3033 32.7408 51.0051 32.8461C50.6988 32.9514 50.3844 33 50.054 33C49.3285 33 48.7643 32.7975 48.3694 32.3925C47.9744 31.9875 47.7729 31.4286 47.7729 30.7077V25.2158H46.2334V24.5273H47.7729V22.6885H48.5709V24.5273H51.2308V25.2158H48.5709V30.6267C48.5709 31.1775 48.6998 31.5906 48.9658 31.8741C49.2238 32.1576 49.6106 32.3034 50.1265 32.3034C50.6424 32.3034 51.0857 32.1495 51.4242 31.8336L51.7627 32.4006Z" fill="#1D1D1B"/>
<path d="M55.7851 32.6922C55.1725 32.4897 54.705 32.2305 54.3584 31.9227L54.7292 31.2747C55.0677 31.5663 55.511 31.8093 56.0511 31.9956C56.5911 32.19 57.1553 32.2872 57.7437 32.2872C58.59 32.2872 59.2107 32.1495 59.6137 31.866C60.0167 31.5825 60.2182 31.2018 60.2182 30.7077C60.2182 30.3513 60.1054 30.0759 59.8877 29.8733C59.6701 29.6708 59.3961 29.5169 59.0817 29.4197C58.7593 29.3225 58.316 29.2253 57.7518 29.1119C57.0908 28.9904 56.5588 28.8608 56.1478 28.7231C55.7448 28.5854 55.3982 28.3586 55.108 28.0508C54.8178 27.743 54.6727 27.3056 54.6727 26.7629C54.6727 26.0987 54.9468 25.5479 55.4949 25.1105C56.043 24.6731 56.8248 24.4624 57.8404 24.4624C58.3724 24.4624 58.9044 24.5353 59.4283 24.6893C59.9522 24.8351 60.3794 25.0376 60.7099 25.2806L60.3391 25.9286C60.0006 25.6775 59.6056 25.4912 59.1704 25.3616C58.7351 25.232 58.2837 25.1672 57.8243 25.1672C57.0425 25.1672 56.4541 25.313 56.0591 25.6046C55.6642 25.8962 55.4626 26.2769 55.4626 26.7467C55.4626 27.1193 55.5755 27.4109 55.8012 27.6215C56.0269 27.8321 56.3009 27.986 56.6233 28.0913C56.9457 28.1966 57.4052 28.3019 57.9936 28.4234C58.6464 28.5449 59.1704 28.6664 59.5734 28.8041C59.9764 28.9418 60.3149 29.1524 60.589 29.4602C60.863 29.768 61.0081 30.1731 61.0081 30.6996C61.0081 31.3962 60.7179 31.9551 60.1457 32.3763C59.5653 32.7975 58.7593 33 57.7115 33C57.0425 33 56.3976 32.8947 55.7851 32.6922V32.6922Z" fill="#1D1D1B"/>
<path d="M11.4541 11.891H12.2521V23.8306H11.4541V11.891Z" fill="#1D1D1B"/>
<path d="M7.17324 3.34535C11.6064 5.19219 13.7182 10.3034 11.8804 14.7666C7.44729 12.9197 5.3355 7.80853 7.17324 3.34535V3.34535Z" fill="#EC0121" stroke="#1D1D1B" stroke-width="0.75"/>
<path d="M11.8726 14.7585C10.0348 10.3034 12.1386 5.18408 16.5798 3.33725C18.4175 7.79233 16.3138 12.9116 11.8726 14.7585Z" fill="#EC0121" stroke="#1D1D1B" stroke-width="0.75"/>
<path d="M14.5239 5.5891C14.403 5.10309 14.1935 4.25257 13.6051 3.36966C13.2585 2.83505 12.3396 1.85493 11.8721 0.907211C11.4046 1.85493 10.4938 2.83505 10.1392 3.36966C9.55077 4.25257 9.33314 5.10309 9.2203 5.5891C9.2203 5.5891 8.97043 6.62591 9.02685 7.85714C9.16387 10.8299 11.6384 14.4345 11.8721 14.7585C12.7668 13.7216 14.6126 11.2592 14.7174 7.85714C14.7416 7.01472 14.661 6.25331 14.5239 5.5891V5.5891Z" fill="#EC0121" stroke="#1D1D1B" stroke-width="0.75"/>
<path d="M20.6096 6.0184C14.8788 5.7511 11.5499 11.9963 11.9126 14.7585C14.8788 14.5641 18.2399 13.1465 19.3119 10.1657C19.7553 9.04786 19.6908 7.07952 20.6096 6.0184V6.0184Z" fill="#EC0121" stroke="#1D1D1B" stroke-width="0.75"/>
<path d="M3.15137 6.0184C8.88221 5.7511 12.2111 11.9963 11.8484 14.7585C8.88221 14.5641 5.52108 13.1465 4.44907 10.1657C4.00575 9.04786 4.07024 7.07952 3.15137 6.0184V6.0184Z" fill="#EC0121" stroke="#1D1D1B" stroke-width="0.75"/>
</g>
<defs>
<clipPath id="clip0_406_800">
<rect width="61" height="33" fill="white"/>
</clipPath>
</defs>
</svg>
