<svg width="62" height="34" viewBox="0 0 62 34" fill="none" xmlns="http://www.w3.org/2000/svg">
    <path d="M0.814086 22.4978V27.3093H6.78673V28.0464H0.814086V33.0199H0V21.7526H7.49604V22.4978H0.814086Z" fill="#1D1D1B"/>
    <path d="M11.4541 21.0803H12.2521V33.0199H11.4541V21.0803Z" fill="#1D1D1B"/>
    <path d="M18.3608 32.542C17.724 32.1775 17.2243 31.6672 16.8616 31.0192C16.4989 30.3712 16.3135 29.634 16.3135 28.824C16.3135 28.014 16.4908 27.2769 16.8616 26.6289C17.2243 25.9809 17.724 25.4706 18.3608 25.1061C18.9975 24.7416 19.7068 24.5634 20.4967 24.5634C21.2867 24.5634 21.996 24.7416 22.6327 25.1061C23.2695 25.4706 23.7692 25.9809 24.1319 26.6289C24.4946 27.2769 24.68 28.0059 24.68 28.824C24.68 29.6421 24.5027 30.3712 24.1319 31.0192C23.7692 31.6672 23.2695 32.1775 22.6327 32.542C21.996 32.9065 21.2867 33.0928 20.4967 33.0928C19.7068 33.0928 18.9975 32.9146 18.3608 32.542ZM22.2216 31.9183C22.7294 31.6186 23.1325 31.1974 23.4226 30.6628C23.7128 30.1282 23.8659 29.5125 23.8659 28.824C23.8659 28.1355 23.7208 27.528 23.4226 26.9853C23.1244 26.4507 22.7294 26.0295 22.2216 25.7298C21.7138 25.4301 21.1416 25.2762 20.4967 25.2762C19.8519 25.2762 19.2797 25.4301 18.7719 25.7298C18.2641 26.0295 17.861 26.4507 17.5709 26.9853C17.2807 27.5199 17.1356 28.1355 17.1356 28.824C17.1356 29.5125 17.2807 30.1201 17.5709 30.6628C17.8691 31.1974 18.2641 31.6186 18.7719 31.9183C19.2797 32.218 19.8519 32.3719 20.4967 32.3719C21.1416 32.3719 21.7138 32.2261 22.2216 31.9183Z" fill="#1D1D1B"/>
    <path d="M30.7333 25.0494C31.2814 24.7254 31.9423 24.5634 32.7161 24.5634V25.3491L32.5227 25.3329C31.5958 25.3329 30.8703 25.6245 30.3464 26.2077C29.8225 26.7909 29.5646 27.609 29.5646 28.6458V33.0199H28.7666V24.6201H29.5323V26.4507C29.7903 25.8432 30.1852 25.3734 30.7333 25.0413V25.0494Z" fill="#1D1D1B"/>
    <path d="M43.5175 29.0184H36.3277C36.3519 29.6745 36.5131 30.2578 36.8275 30.7681C37.1338 31.2784 37.561 31.6753 38.0849 31.9507C38.6169 32.2261 39.2053 32.3719 39.8743 32.3719C40.4224 32.3719 40.9221 32.2747 41.3896 32.0722C41.8571 31.8697 42.244 31.5781 42.5503 31.1974L43.0178 31.732C42.655 32.1694 42.1956 32.5096 41.6475 32.7445C41.0994 32.9794 40.503 33.1009 39.8581 33.1009C39.0279 33.1009 38.2864 32.9227 37.6335 32.5501C36.9806 32.1856 36.4728 31.6834 36.1021 31.0354C35.7313 30.3955 35.5459 29.6583 35.5459 28.8321C35.5459 28.0059 35.7232 27.285 36.0698 26.637C36.4164 25.989 36.892 25.4787 37.5045 25.1142C38.1171 24.7497 38.7942 24.5715 39.5518 24.5715C40.3095 24.5715 40.9946 24.7497 41.5911 25.1061C42.1956 25.4625 42.6712 25.9647 43.0178 26.6127C43.3643 27.2607 43.5417 27.9897 43.5417 28.7997L43.5256 29.0265L43.5175 29.0184ZM37.964 25.665C37.4965 25.9323 37.1176 26.2968 36.8355 26.7747C36.5534 27.2526 36.3922 27.7872 36.3439 28.3947H42.7518C42.7195 27.7953 42.5583 27.2607 42.2682 26.7828C41.978 26.313 41.5991 25.9404 41.1317 25.6731C40.6642 25.4058 40.1322 25.2681 39.5438 25.2681C38.9554 25.2681 38.4315 25.3977 37.9559 25.665H37.964Z" fill="#1D1D1B"/>
    <path d="M51.7627 32.4934C51.5612 32.6878 51.3033 32.8336 51.0051 32.9389C50.6988 33.0442 50.3844 33.0928 50.054 33.0928C49.3285 33.0928 48.7643 32.8903 48.3694 32.4853C47.9744 32.0803 47.7729 31.5214 47.7729 30.8005V25.3086H46.2334V24.6201H47.7729V22.7813H48.5709V24.6201H51.2308V25.3086H48.5709V30.7195C48.5709 31.2703 48.6998 31.6834 48.9658 31.9669C49.2238 32.2504 49.6106 32.3962 50.1265 32.3962C50.6424 32.3962 51.0857 32.2423 51.4242 31.9264L51.7627 32.4934Z" fill="#1D1D1B"/>
    <path d="M55.7851 32.785C55.1725 32.5825 54.705 32.3233 54.3584 32.0155L54.7292 31.3675C55.0677 31.6591 55.511 31.9021 56.0511 32.0884C56.5911 32.2828 57.1553 32.38 57.7437 32.38C58.59 32.38 59.2107 32.2423 59.6137 31.9588C60.0167 31.6753 60.2182 31.2946 60.2182 30.8005C60.2182 30.4441 60.1054 30.1687 59.8877 29.9661C59.6701 29.7636 59.3961 29.6097 59.0817 29.5125C58.7593 29.4153 58.316 29.3181 57.7518 29.2047C57.0908 29.0832 56.5588 28.9536 56.1478 28.8159C55.7448 28.6782 55.3982 28.4514 55.108 28.1436C54.8178 27.8358 54.6727 27.3984 54.6727 26.8557C54.6727 26.1915 54.9468 25.6407 55.4949 25.2033C56.043 24.7659 56.8248 24.5552 57.8404 24.5552C58.3724 24.5552 58.9044 24.6281 59.4283 24.7821C59.9522 24.9279 60.3794 25.1304 60.7099 25.3734L60.3391 26.0214C60.0006 25.7703 59.6056 25.584 59.1704 25.4544C58.7351 25.3248 58.2837 25.26 57.8243 25.26C57.0425 25.26 56.4541 25.4058 56.0591 25.6974C55.6642 25.989 55.4626 26.3697 55.4626 26.8395C55.4626 27.2121 55.5755 27.5037 55.8012 27.7143C56.0269 27.9249 56.3009 28.0788 56.6233 28.1841C56.9457 28.2894 57.4052 28.3947 57.9936 28.5162C58.6464 28.6377 59.1704 28.7592 59.5734 28.8969C59.9764 29.0346 60.3149 29.2452 60.589 29.553C60.863 29.8608 61.0081 30.2659 61.0081 30.7924C61.0081 31.489 60.7179 32.0479 60.1457 32.4691C59.5653 32.8903 58.7593 33.0928 57.7115 33.0928C57.0425 33.0928 56.3976 32.9875 55.7851 32.785Z" fill="#1D1D1B"/>
    <path d="M11.4541 11.9838H12.2521V23.9234H11.4541V11.9838Z" fill="#1D1D1B"/>
    <path d="M7.17324 3.43814C11.6064 5.28498 13.7182 10.3962 11.8804 14.8594C7.44729 13.0125 5.3355 7.90132 7.17324 3.43814Z" fill="#FE344C" stroke="#1D1D1B" stroke-width="0.75"/>
    <path d="M11.8726 14.8513C10.0348 10.3962 12.1386 5.27687 16.5798 3.43004C18.4175 7.88512 16.3138 13.0044 11.8726 14.8513Z" fill="#FE344C" stroke="#1D1D1B" stroke-width="0.75"/>
    <path d="M14.5239 5.68189C14.403 5.19588 14.1935 4.34536 13.6051 3.46245C13.2585 2.92784 12.3396 1.94772 11.8721 1C11.4046 1.94772 10.4938 2.92784 10.1392 3.46245C9.55077 4.34536 9.33314 5.19588 9.2203 5.68189C9.2203 5.68189 8.97043 6.7187 9.02685 7.94993C9.16387 10.9227 11.6384 14.5273 11.8721 14.8513C12.7668 13.8144 14.6126 11.352 14.7174 7.94993C14.7416 7.10751 14.661 6.3461 14.5239 5.68189Z" fill="#FE344C" stroke="#1D1D1B" stroke-width="0.75"/>
    <path d="M20.6096 6.11119C14.8788 5.84389 11.5499 12.0891 11.9126 14.8513C14.8788 14.6569 18.2399 13.2393 19.3119 10.2585C19.7553 9.14065 19.6908 7.17231 20.6096 6.11119Z" fill="#FE344C" stroke="#1D1D1B" stroke-width="0.75"/>
    <path d="M3.15137 6.11119C8.88221 5.84389 12.2111 12.0891 11.8484 14.8513C8.88221 14.6569 5.52108 13.2393 4.44907 10.2585C4.00575 9.14065 4.07024 7.17231 3.15137 6.11119Z" fill="#FE344C" stroke="#1D1D1B" stroke-width="0.75"/>
</svg>
