<svg width="42" height="34" viewBox="0 0 42 34" fill="none" xmlns="http://www.w3.org/2000/svg">
	<path d="M10.4999 7.10001C20.2999 11.2 24.8999 22.5 20.8999 32.3C11.0999 28.2 6.39986 16.9 10.4999 7.10001Z" fill="#FE344C"/>
	<path d="M21.2995 33.3L20.5995 33C10.3995 28.8 5.59954 17 9.79954 6.80001L10.0995 6.10001L10.7995 6.40001C20.9995 10.6 25.7995 22.4 21.5995 32.6L21.2995 33.3ZM10.8995 8.10001C7.59954 17.1 11.7995 27.3 20.4995 31.3C23.7995 22.3 19.5995 12.1 10.8995 8.10001Z" fill="#1D1D1B"/>
	<path d="M20.9003 32.3C16.8003 22.5 21.5003 11.2 31.3003 7.10001C35.3003 16.9 30.7003 28.2 20.9003 32.3Z" fill="#FE344C"/>
	<path d="M20.4999 33.3L20.1999 32.6C15.9999 22.4 20.7999 10.6 30.9999 6.40001L31.6999 6.10001L31.9999 6.80001C36.1999 17 31.3999 28.8 21.1999 33L20.4999 33.3ZM30.7999 8.10001C22.0999 12.1 17.8999 22.3 21.1999 31.3C29.9999 27.2 34.1999 17.1 30.7999 8.10001Z" fill="#1D1D1B"/>
	<path d="M26.7 12C26.4 10.9 26 9 24.7 7.1C23.9 6 21.9 3.8 20.9 1.7C19.9 3.8 17.9 6 17.1 7.1C15.8 9 15.3 10.9 15.1 12C15.1 12 14.5 14.3 14.7 17C14.9 23.6 20.4 31.6 20.9 32.3C22.9 30 26.9 24.6 27.2 17.1C27.2 15.2 27 13.5 26.7 12Z" fill="#FE344C"/>
	<path d="M20.8003 33.5L20.2003 32.7C20.1003 32.6 14.1003 24.2 13.8003 17.1C13.7003 14.3 14.2003 12 14.2003 11.9C14.5003 10.5 15.1003 8.7 16.3003 6.8C16.6003 6.4 17.0003 5.9 17.4003 5.3C18.3003 4.2 19.4003 2.8 20.1003 1.4L20.9003 0L21.6003 1.4C22.2003 2.7 23.3003 4.1 24.2003 5.2C24.7003 5.8 25.1003 6.3 25.4003 6.8C26.8003 8.8 27.3003 10.8 27.5003 11.9V12C27.8003 13.7 28.0003 15.4 27.9003 17.2C27.7003 24.2 24.3003 29.6 21.4003 32.9L20.8003 33.5ZM20.9003 3.2C20.2003 4.3 19.4003 5.3 18.7003 6.2C18.3003 6.8 17.9003 7.2 17.6003 7.6C16.3003 9.5 15.9003 11.4 15.7003 12.3C15.7003 12.3 15.2003 14.5 15.3003 17.1C15.5003 22.4 19.4003 28.9 20.9003 31.1C23.4003 28 26.2003 23.2 26.4003 17.1C26.4003 15.5 26.3003 13.8 26.0003 12.3C25.7003 11.2 25.3003 9.5 24.1003 7.7C23.9003 7.3 23.5003 6.8 23.0003 6.2C22.3003 5.3 21.5003 4.3 20.9003 3.2Z" fill="#1D1D1B"/>
	<path d="M40.2 14C27.5 13.4 20.2 27.2 21 33.3C27.5 32.9 35 29.7 37.3 23.2C38.3 20.7 38.1 16.3 40.2 14Z" fill="#FE344C"/>
	<path d="M20.4998 33.6L20.1998 33.3C19.7998 30 21.5998 24.1 25.8998 19.4C28.6998 16.4 33.3998 12.8 40.0998 13.2L41.5998 13.3L40.5998 14.5C39.3998 15.8 39.0998 18 38.6998 20C38.4998 21.3 38.2998 22.4 37.8998 23.4C35.2998 30.6 27.0998 33.6 20.8998 34L20.4998 33.6ZM38.7998 14.7C33.2998 14.9 29.4998 17.9 27.0998 20.5C23.3998 24.5 21.5998 29.5 21.6998 32.5C27.3998 31.9 34.3998 29.2 36.5998 22.9C36.8998 22 37.0998 20.9 37.3998 19.8C37.5998 18.1 37.9998 16.2 38.7998 14.7Z" fill="#1D1D1B"/>
	<path d="M1.59961 14C14.2996 13.4 21.5996 27.2 20.7996 33.3C14.2996 32.9 6.79961 29.7 4.49961 23.2C3.49961 20.7 3.59961 16.3 1.59961 14Z" fill="#FE344C"/>
	<path d="M21.4 34H20.7C14.5 33.6 6.3 30.6 3.7 23.4C3.3 22.4 3.1 21.3 2.9 20C2.5 17.9 2.1 15.8 1 14.5L0 13.3L1.5 13.2C8.2 12.9 13 16.4 15.7 19.4C20 24.1 21.9 30 21.4 33.3V34ZM3 14.7C3.8 16.2 4.1 18 4.4 19.7C4.6 20.9 4.8 22 5.1 22.8C7.4 29.1 14.4 31.8 20 32.4C20.1 29.4 18.3 24.4 14.6 20.4C12.4 17.9 8.5 14.9 3 14.7Z" fill="#1D1D1B"/>
	<path d="M23.0002 33.3C23.0002 33.7 22.0002 34 20.9002 34C19.7002 34 18.7002 33.7 18.7002 33.3C18.7002 32.9 19.7002 32.6 20.8002 32.6C22.1002 32.5 23.0002 32.9 23.0002 33.3Z" fill="#1D1D1B"/>
</svg>
